<svg width="31" height="30" viewBox="0 0 31 30" fill="none" xmlns="http://www.w3.org/2000/svg">
<rect x="0.380005" width="30" height="30" rx="15" fill="#2C2C2C"/>
<path d="M20.3751 9.68359H10.3849C10.2091 9.68359 10.0602 9.74463 9.93811 9.8667C9.81604 9.98877 9.755 10.1377 9.755 10.3135V20.3184C9.755 20.4844 9.81604 20.6284 9.93811 20.7505C10.0602 20.8726 10.2091 20.9336 10.3849 20.9336H20.3751C20.5509 20.9336 20.6998 20.8726 20.8219 20.7505C20.944 20.6284 21.005 20.4844 21.005 20.3184V10.3135C21.005 10.1377 20.944 9.98877 20.8219 9.8667C20.6998 9.74463 20.5509 9.68359 20.3751 9.68359ZM13.0948 19.2783H11.4249V13.9023H13.0948V19.2783ZM12.2599 13.1699C11.9865 13.1699 11.757 13.0747 11.5714 12.8843C11.3859 12.6938 11.2931 12.4668 11.2931 12.2031C11.2931 11.9395 11.3859 11.7124 11.5714 11.522C11.757 11.3315 11.9865 11.2363 12.2599 11.2363C12.5236 11.2363 12.7506 11.3315 12.941 11.522C13.1315 11.7124 13.2267 11.9395 13.2267 12.2031C13.2267 12.4668 13.1315 12.6938 12.941 12.8843C12.7506 13.0747 12.5236 13.1699 12.2599 13.1699ZM19.3351 19.2783H17.6798V16.6562C17.6798 16.3438 17.6407 16.0288 17.5626 15.7114C17.4845 15.394 17.2306 15.2354 16.8009 15.2354C16.3712 15.2354 16.0978 15.3794 15.9806 15.6675C15.8634 15.9556 15.8048 16.2705 15.8048 16.6123V19.2783H14.1349V13.9023H15.7316V14.6348H15.7609C15.8683 14.4297 16.0563 14.2344 16.3248 14.0488C16.5934 13.8633 16.9327 13.7705 17.3429 13.7705C18.1827 13.7705 18.7247 14.0171 18.9689 14.5103C19.213 15.0034 19.3351 15.6113 19.3351 16.334V19.2783Z" fill="white"/>
</svg>
