<svg width="65" height="64" viewBox="0 0 65 64" fill="none" xmlns="http://www.w3.org/2000/svg">
<g clip-path="url(#clip0_449_1935)">
<g clip-path="url(#clip1_449_1935)">
<path d="M27.73 29.3342C26.9014 29.3342 26.23 28.6628 26.23 27.8342V18.1243H23.02C22.4478 18.1243 21.9258 17.7986 21.6734 17.2854C21.4214 16.7717 21.4834 16.1594 21.8335 15.7068L30.8335 4.06665C31.4009 3.33227 32.6392 3.33227 33.2066 4.06665L42.2066 15.7068C42.5567 16.1594 42.6187 16.7717 42.3667 17.2854C42.1143 17.7986 41.5923 18.1243 41.02 18.1243H37.8101V21.9841C37.8101 22.8127 37.1387 23.4841 36.3101 23.4841C35.4815 23.4841 34.8101 22.8127 34.8101 21.9841V16.6243C34.8101 15.7957 35.4815 15.1243 36.3101 15.1243H37.9644L32.02 7.43628L26.0757 15.1243H27.73C28.5586 15.1243 29.23 15.7957 29.23 16.6243V27.8342C29.23 28.6628 28.5586 29.3342 27.73 29.3342Z" fill="#2C2C2C"/>
<path d="M19.856 56.387H19.8374L7.13042 56.2317C6.66655 56.2258 6.23101 56.0056 5.95122 55.635C5.67192 55.2644 5.57964 54.7849 5.70171 54.3372L9.04448 42.0789C9.19487 41.5271 9.64604 41.1087 10.208 41.0003C10.77 40.8919 11.3438 41.1126 11.6885 41.5691L13.3291 43.7415C14.9038 42.7703 17.771 40.9104 19.625 39.1594C20.2271 38.5901 21.1773 38.6184 21.7451 39.22C22.314 39.822 22.2871 40.7713 21.6846 41.3401C18.772 44.0916 13.8985 46.9036 13.6924 47.0222C13.0362 47.3992 12.2031 47.2288 11.7486 46.6258L11.1353 45.8143L9.10648 53.2557L16.8208 53.3499L15.8936 52.118C15.6426 51.7845 15.5415 51.3616 15.6153 50.951C15.689 50.5403 15.9302 50.179 16.2813 49.9534L18.9688 48.2273C19.6665 47.7796 20.5938 47.9827 21.0415 48.679C21.4893 49.3758 21.2871 50.304 20.5899 50.7518L19.2622 51.6043L21.0542 53.9847C21.3985 54.4417 21.4527 55.0545 21.1944 55.5648C20.9385 56.0696 20.4209 56.387 19.856 56.387Z" fill="#2C2C2C"/>
<path d="M44.184 56.387C43.6191 56.387 43.1015 56.0696 42.8456 55.5647C42.5873 55.0545 42.6415 54.4417 42.9858 53.9847L44.7778 51.6043L43.4501 50.7518C42.7528 50.304 42.5507 49.3758 42.9985 48.679C43.4462 47.9827 44.3739 47.7801 45.0712 48.2273L47.7587 49.9534C48.1098 50.179 48.351 50.5403 48.4247 50.951C48.4985 51.3616 48.3974 51.7845 48.1464 52.118L47.2192 53.3499L54.9335 53.2557L52.9047 45.8142L52.2914 46.6258C51.8359 47.2288 51.0029 47.3992 50.3476 47.0222C50.1415 46.9036 45.268 44.0916 42.3554 41.3401C41.7528 40.7713 41.726 39.822 42.2948 39.22C42.8632 38.6184 43.8124 38.5901 44.415 39.1594C46.269 40.9104 49.1361 42.7703 50.7109 43.7415L52.3515 41.5691C52.6962 41.1126 53.268 40.8909 53.8319 41.0003C54.394 41.1087 54.8451 41.5271 54.9955 42.0789L58.3383 54.3372C58.4604 54.7849 58.3681 55.2644 58.0888 55.635C57.809 56.0056 57.3734 56.2258 56.9096 56.2317L44.2025 56.387H44.184Z" fill="#2C2C2C"/>
<path d="M16.4273 36.4946C16.023 36.4946 15.6202 36.332 15.3243 36.0117C14.0977 34.6816 12.7007 33.6406 11.772 33.0161L10.0455 35.101C9.68859 35.5322 9.12072 35.7275 8.57384 35.6108C8.02648 35.4926 7.59044 35.0795 7.44298 34.539L3.57286 20.3491C3.44444 19.8784 3.55333 19.3745 3.86436 18.9985C4.17539 18.6225 4.64805 18.4248 5.13633 18.4589L18.9063 19.5288C19.4527 19.5712 19.9322 19.9081 20.1573 20.4077C20.3829 20.9072 20.3179 21.4897 19.9879 21.9272L18.2383 24.249C20.3301 25.7949 22.691 27.9765 24.4659 30.0346C25.0069 30.6621 24.9371 31.6088 24.3096 32.1498C23.6827 32.6904 22.7344 32.621 22.1944 31.9936C20.2012 29.6826 17.4283 27.2177 15.295 25.8598C14.942 25.6352 14.6988 25.2734 14.6241 24.8613C14.5494 24.4496 14.6505 24.0258 14.9024 23.6913L15.9449 22.308L7.02795 21.6152L9.57727 30.9628L10.2984 30.0917C10.7584 29.5361 11.5474 29.3867 12.1798 29.7358C12.2994 29.8017 15.1407 31.3876 17.5294 33.9775C18.0909 34.5864 18.0528 35.5356 17.4439 36.0971C17.1554 36.3632 16.7906 36.4946 16.4273 36.4946Z" fill="#2C2C2C"/>
<path d="M47.6127 36.4946C47.2489 36.4946 46.8846 36.3632 46.5961 36.0971C45.9872 35.5356 45.9491 34.5864 46.5106 33.9775C48.8993 31.3877 51.7406 29.8017 51.8602 29.7358C52.4911 29.3867 53.2816 29.5366 53.7416 30.0918L54.4628 30.9628L57.0121 21.6152L48.0951 22.3081L49.1376 23.6914C49.3895 24.0258 49.4906 24.4497 49.4159 24.8613C49.3412 25.2734 49.098 25.6352 48.745 25.8598C46.6117 27.2177 43.8387 29.6826 41.8456 31.9936C41.3051 32.621 40.3568 32.6909 39.7304 32.1499C39.1029 31.6088 39.0331 30.6621 39.5741 30.0346C41.349 27.9765 43.7098 25.7949 45.8016 24.249L44.0521 21.9272C43.7221 21.4897 43.6571 20.9072 43.8827 20.4077C44.1078 19.9082 44.5873 19.5712 45.1337 19.5288L58.9037 18.4589C59.3944 18.4248 59.8646 18.622 60.1757 18.9985C60.4867 19.3745 60.5956 19.8784 60.4672 20.3491L56.5971 34.539C56.4496 35.0795 56.0136 35.4926 55.4662 35.6108C54.9179 35.7275 54.3514 35.5322 53.9945 35.101L52.268 33.0161C51.3392 33.6406 49.9423 34.6816 48.7157 36.0117C48.4203 36.332 48.017 36.4946 47.6127 36.4946Z" fill="#2C2C2C"/>
<path d="M24.1108 48.801C24.6801 49.2381 25.02 49.9573 25.02 50.7249V52.4842H30.4213C29.9482 42.7326 25.0208 38.1497 24.9687 38.1023C24.4277 37.614 24.3129 36.805 24.7011 36.1883C25.0893 35.5706 25.8642 35.3211 26.5361 35.596C30.2265 37.1057 33.8134 37.1057 37.5038 35.596C38.1791 35.3191 38.9589 35.5711 39.3452 36.1917C39.7319 36.8128 39.6137 37.6223 39.0659 38.1072C39.0189 38.15 34.0917 42.7326 33.6186 52.4841H39.02V50.7283C39.02 49.9548 39.3447 49.2459 39.8891 48.8313C43.1498 46.3479 45.02 42.5769 45.02 38.4841C45.02 34.9182 43.6049 31.5921 41.0356 29.1184C38.4672 26.6458 35.0829 25.3616 31.5151 25.4939C24.724 25.7517 19.1196 31.4929 19.0214 38.2923C18.9614 42.4422 20.8163 46.2722 24.1108 48.801Z" fill="#FFB900"/>
<path d="M29.834 39.574C30.5903 40.8503 31.375 42.4661 32.02 44.4338C32.665 42.4661 33.4497 40.8503 34.206 39.574C32.749 39.7693 31.291 39.7693 29.834 39.574Z" fill="#FFB900"/>
<path d="M25.02 55.4844V55.9844C25.02 58.4659 27.0385 60.4844 29.52 60.4844H34.52C37.0015 60.4844 39.02 58.4659 39.02 55.9844V55.4844H25.02Z" fill="#FFB900"/>
</g>
</g>
<defs>
<clipPath id="clip0_449_1935">
<rect width="64" height="64" fill="white" transform="translate(0.0200195)"/>
</clipPath>
<clipPath id="clip1_449_1935">
<rect width="64" height="64" fill="white" transform="translate(0.0200195)"/>
</clipPath>
</defs>
</svg>
