<svg width="30" height="30" viewBox="0 0 30 30" fill="none" xmlns="http://www.w3.org/2000/svg">
<g clip-path="url(#clip0_449_1865)">
<path d="M27.6562 27.4065H23.4375C23.0493 27.4065 22.7343 27.0916 22.7343 26.7034C22.7343 26.3152 23.0493 26.0003 23.4375 26.0003H26.9531V25.0252C26.9531 23.19 25.4644 21.6972 23.6343 21.6972C22.5837 21.6972 21.5822 22.2026 20.9555 23.0486C20.7243 23.3608 20.2839 23.4267 19.9722 23.1951C19.66 22.9639 19.5945 22.5235 19.8257 22.2118C20.7165 21.0092 22.1402 20.291 23.6343 20.291C26.2399 20.291 28.3593 22.4146 28.3593 25.0252V26.7034C28.3593 27.0916 28.0444 27.4065 27.6562 27.4065Z" fill="#2C2C2C"/>
<path d="M23.631 21.7026C21.8476 21.7026 20.3969 20.2519 20.3969 18.4685C20.3969 16.6851 21.8476 15.2344 23.631 15.2344C25.4144 15.2344 26.8652 16.6851 26.8652 18.4685C26.8652 20.2519 25.4144 21.7026 23.631 21.7026ZM23.631 16.6407C22.623 16.6407 21.8032 17.4605 21.8032 18.4685C21.8032 19.4765 22.623 20.2963 23.631 20.2963C24.639 20.2963 25.4588 19.4765 25.4588 18.4685C25.4588 17.4605 24.639 16.6407 23.631 16.6407Z" fill="#2C2C2C"/>
<path d="M6.5625 27.4065H2.34376C1.95534 27.4065 1.64062 27.0916 1.64062 26.7034V25.0252C1.64062 22.4146 3.76031 20.291 6.36567 20.291C7.86004 20.291 9.2839 21.0092 10.1745 22.2118C10.4055 22.524 10.34 22.9644 10.0278 23.1951C9.71607 23.4267 9.27541 23.3608 9.04424 23.0486C8.41782 22.2026 7.41646 21.6972 6.36567 21.6972C4.53575 21.6972 3.04688 23.19 3.04688 25.0252V26.0003H6.5625C6.95092 26.0003 7.26563 26.3152 7.26563 26.7034C7.26563 27.0916 6.95092 27.4065 6.5625 27.4065Z" fill="#2C2C2C"/>
<path d="M6.36886 21.7026C4.58564 21.7026 3.13477 20.2519 3.13477 18.4685C3.13477 16.6851 4.58564 15.2344 6.36886 15.2344C8.15209 15.2344 9.60292 16.6851 9.60292 18.4685C9.60292 20.2519 8.15209 21.7026 6.36886 21.7026ZM6.36886 16.6407C5.3611 16.6407 4.54101 17.4605 4.54101 18.4685C4.54101 19.4765 5.3611 20.2963 6.36886 20.2963C7.37663 20.2963 8.19671 19.4765 8.19671 18.4685C8.19671 17.4605 7.37663 16.6407 6.36886 16.6407Z" fill="#2C2C2C"/>
<path d="M17.4797 10.6787C17.3854 10.6787 17.2906 10.6599 17.2013 10.621L14.9999 9.67209L12.7985 10.621C12.5708 10.7204 12.3083 10.6897 12.1068 10.5446C11.9062 10.3986 11.7972 10.1573 11.8201 9.91012L12.0425 7.52334L10.4596 5.72297C10.2957 5.53666 10.2422 5.27756 10.3188 5.04136C10.3957 4.80561 10.5912 4.62707 10.8334 4.5726L13.1723 4.04709L14.3952 1.98487C14.5218 1.77155 14.7516 1.64062 14.9999 1.64062C15.2483 1.64062 15.4783 1.77155 15.6047 1.98533L16.8274 4.04709L19.1665 4.5726C19.4087 4.62707 19.6041 4.80561 19.6811 5.04136C19.7575 5.27756 19.7044 5.53666 19.5401 5.72297L17.9571 7.52334L18.1796 9.91012C18.2029 10.1573 18.094 10.3985 17.893 10.5446C17.7708 10.6329 17.6257 10.6787 17.4797 10.6787ZM12.2985 5.68498L13.2989 6.82252C13.4266 6.96763 13.4889 7.15943 13.471 7.35215L13.3302 8.86046L14.7216 8.2608C14.8992 8.1839 15.1007 8.1839 15.2783 8.2608L16.6694 8.86046L16.5289 7.35215C16.5106 7.15943 16.5728 6.96763 16.701 6.82252L17.7012 5.68498L16.2231 5.35264C16.0345 5.31007 15.8715 5.19151 15.7727 5.02488L14.9999 3.72209L14.227 5.02534C14.1284 5.1915 13.9654 5.31006 13.7765 5.35264L12.2985 5.68498Z" fill="#2C2C2C"/>
<path d="M5.15641 13.3591C4.89846 13.3591 4.65012 13.2167 4.527 12.9704C4.3535 12.623 4.49426 12.2005 4.84147 12.0269L9.529 9.68369C9.87623 9.5102 10.299 9.65077 10.4725 9.99817C10.6459 10.3457 10.5052 10.7681 10.158 10.9416L5.47044 13.2849C5.36951 13.3353 5.26216 13.3591 5.15641 13.3591Z" fill="#2C2C2C"/>
<path d="M8.28073 5.39085C8.19559 5.39085 8.10883 5.37528 8.02483 5.34232L4.43116 3.93607C4.06953 3.79462 3.89101 3.38675 4.03245 3.02512C4.17413 2.66349 4.58177 2.48496 4.9434 2.62686L8.53707 4.03312C8.89874 4.17456 9.07719 4.58243 8.93576 4.94406C8.82708 5.22147 8.56179 5.39085 8.28073 5.39085Z" fill="#2C2C2C"/>
<path d="M2.34305 8.67189C1.97616 8.67189 1.66693 8.38719 1.64221 8.01548C1.61634 7.62821 1.90955 7.29313 2.29704 7.26704L9.32828 6.79828C9.71074 6.77403 10.0507 7.06562 10.0765 7.45335C10.1024 7.84061 9.80914 8.1757 9.42171 8.20179L2.39042 8.67052C2.37463 8.67146 2.35884 8.67189 2.34305 8.67189Z" fill="#2C2C2C"/>
<path d="M24.843 13.3588C24.7373 13.3588 24.6302 13.335 24.5291 13.2847L19.8415 10.9413C19.4941 10.7678 19.3535 10.3454 19.527 9.99787C19.7005 9.6509 20.1231 9.51041 20.4705 9.68338L25.158 12.0267C25.5054 12.2002 25.646 12.6227 25.4725 12.9702C25.3493 13.2164 25.1008 13.3588 24.843 13.3588Z" fill="#2C2C2C"/>
<path d="M21.7184 5.39052C21.4378 5.39052 21.1722 5.22114 21.0638 4.94375C20.9219 4.58211 21.1004 4.17425 21.462 4.03279L25.056 2.62655C25.4157 2.48556 25.825 2.66271 25.9668 3.0248C26.1088 3.38643 25.9302 3.7943 25.5686 3.93575L21.9747 5.342C21.8905 5.37496 21.804 5.39052 21.7184 5.39052Z" fill="#2C2C2C"/>
<path d="M27.6569 8.67168C27.6409 8.67168 27.6253 8.67125 27.6093 8.67031L20.5781 8.20155C20.1904 8.17546 19.8974 7.84038 19.923 7.45311C19.9491 7.06493 20.2892 6.77607 20.6715 6.79805L27.7027 7.2668C28.0904 7.2929 28.3834 7.62798 28.3577 8.01524C28.3326 8.38695 28.0236 8.67168 27.6569 8.67168Z" fill="#2C2C2C"/>
<path d="M17.5776 19.0355C18.5738 18.2632 19.2187 17.0585 19.2187 15.7031C19.2187 13.3768 17.3263 11.4844 14.9999 11.4844C12.6738 11.4844 10.7811 13.3768 10.7811 15.7031C10.7811 17.0585 11.4261 18.2631 12.4223 19.0355C10.0269 20.045 8.34082 22.4165 8.34082 25.1747V27.6563C8.34082 28.0445 8.65551 28.3594 9.04397 28.3594H20.9559C21.3441 28.3594 21.659 28.0445 21.659 27.6563V25.1747C21.659 22.4165 19.973 20.0451 17.5776 19.0355Z" fill="#2C2C2C"/>
</g>
<defs>
<clipPath id="clip0_449_1865">
<rect width="30" height="30" fill="white"/>
</clipPath>
</defs>
</svg>
