<svg width="24" height="24" viewBox="0 0 24 24" fill="none" xmlns="http://www.w3.org/2000/svg">
<path d="M13 16C13.7956 16 14.5587 16.3161 15.1213 16.8787C15.6839 17.4413 16 18.2044 16 19C16 19.7956 15.6839 20.5587 15.1213 21.1213C14.5587 21.6839 13.7956 22 13 22H6.99999C6.05396 21.9998 5.1274 21.7312 4.32791 21.2255C3.52843 20.7197 2.88884 19.9975 2.48342 19.1427C2.078 18.288 1.92339 17.3358 2.03755 16.3966C2.15171 15.4575 2.52995 14.5701 3.12835 13.8373C3.72675 13.1046 4.52074 12.5567 5.41811 12.2572C6.31548 11.9577 7.27941 11.9189 8.19793 12.1454C9.11646 12.3718 9.95189 12.8542 10.6072 13.5366C11.2625 14.2189 11.7108 15.0731 11.9 16H13Z" stroke="#2C2C2C" stroke-width="2" stroke-linecap="round" stroke-linejoin="round"/>
<path d="M18.376 14.5121C19.2346 14.1415 19.9947 13.5753 20.5956 12.8588C21.1965 12.1422 21.6216 11.2951 21.837 10.3851C21.985 9.76009 21.178 9.41509 20.589 9.67109C19.8531 9.98941 19.0385 10.0792 18.2509 9.9289C17.4634 9.77856 16.7391 9.39501 16.1722 8.828C15.6053 8.26099 15.2219 7.5367 15.0717 6.74909C14.9216 5.96149 15.0115 5.14693 15.33 4.41109C15.585 3.82209 15.24 3.01609 14.614 3.16309C13.38 3.45628 12.2707 4.13296 11.4453 5.09598C10.6199 6.05899 10.1209 7.25879 10.02 8.52309" stroke="#2C2C2C" stroke-width="2" stroke-linecap="round" stroke-linejoin="round"/>
</svg>
