<svg width="36" height="36" viewBox="0 0 36 36" fill="none" xmlns="http://www.w3.org/2000/svg">
<path d="M22.3167 28.4775V10.9775C22.3167 10.2039 22.0094 9.46204 21.4624 8.91506C20.9154 8.36808 20.1735 8.06079 19.4 8.06079H15.025" stroke="#2C2C2C" stroke-width="2" stroke-linecap="round" stroke-linejoin="round"/>
<path d="M22.375 28.4785H13.625" stroke="#2C2C2C" stroke-width="2" stroke-linecap="round" stroke-linejoin="round"/>
<path d="M29.6082 28.4779H32.5249C32.9117 28.4779 33.2826 28.3242 33.5561 28.0507C33.8296 27.7772 33.9832 27.4063 33.9832 27.0195V21.6966C33.9813 21.3677 33.8683 21.049 33.6624 20.7924L28.5874 14.4487C28.4516 14.2768 28.2788 14.1378 28.0819 14.0418C27.8849 13.9459 27.6689 13.8955 27.4499 13.8945H22.3166" stroke="#2C2C2C" stroke-width="2" stroke-linecap="round" stroke-linejoin="round"/>
<path d="M3.4165 19.7285V27.0202C3.4165 27.407 3.57015 27.7779 3.84364 28.0514C4.11713 28.3249 4.48806 28.4785 4.87484 28.4785H7.7915" stroke="#2C2C2C" stroke-width="2" stroke-linecap="round" stroke-linejoin="round"/>
<path d="M2.25 12.7538L3.37768 12.2871" stroke="#FFB900" stroke-width="2.44352" stroke-linecap="round" stroke-linejoin="round"/>
<path d="M3.37768 9.48161L2.25 9.01367" stroke="#FFB900" stroke-width="2.44352" stroke-linecap="round" stroke-linejoin="round"/>
<path d="M5.36198 7.49682L4.89404 6.36914" stroke="#FFB900" stroke-width="2.44352" stroke-linecap="round" stroke-linejoin="round"/>
<path d="M5.36198 14.2715L4.89404 15.4004" stroke="#FFB900" stroke-width="2.44352" stroke-linecap="round" stroke-linejoin="round"/>
<path d="M8.16699 7.49682L8.63492 6.36914" stroke="#FFB900" stroke-width="2.44352" stroke-linecap="round" stroke-linejoin="round"/>
<path d="M8.6337 15.4004L8.16699 14.2715" stroke="#FFB900" stroke-width="2.44352" stroke-linecap="round" stroke-linejoin="round"/>
<path d="M10.1512 9.48161L11.2801 9.01367" stroke="#FFB900" stroke-width="2.44352" stroke-linecap="round" stroke-linejoin="round"/>
<path d="M10.1514 12.2871L11.2803 12.755" stroke="#FFB900" stroke-width="2.44352" stroke-linecap="round" stroke-linejoin="round"/>
<path d="M6.76439 14.5493C8.78867 14.5493 10.4297 12.9083 10.4297 10.884C10.4297 8.85975 8.78867 7.21875 6.76439 7.21875C4.74012 7.21875 3.09912 8.85975 3.09912 10.884C3.09912 12.9083 4.74012 14.5493 6.76439 14.5493Z" stroke="#FFB900" stroke-width="2.44352" stroke-linecap="round" stroke-linejoin="round"/>
<path d="M26.6917 31.3941C28.3025 31.3941 29.6083 30.0883 29.6083 28.4775C29.6083 26.8666 28.3025 25.5608 26.6917 25.5608C25.0808 25.5608 23.775 26.8666 23.775 28.4775C23.775 30.0883 25.0808 31.3941 26.6917 31.3941Z" stroke="#2C2C2C" stroke-width="2" stroke-linecap="round" stroke-linejoin="round"/>
<path d="M10.7082 31.3939C12.319 31.3939 13.6248 30.088 13.6248 28.4772C13.6248 26.8664 12.319 25.5605 10.7082 25.5605C9.09734 25.5605 7.7915 26.8664 7.7915 28.4772C7.7915 30.088 9.09734 31.3939 10.7082 31.3939Z" stroke="#2C2C2C" stroke-width="2" stroke-linecap="round" stroke-linejoin="round"/>
</svg>
