<svg width="30" height="30" viewBox="0 0 30 30" fill="none" xmlns="http://www.w3.org/2000/svg">
<g clip-path="url(#clip0_449_1851)">
<path d="M13.75 20H16.25C16.913 20 17.5489 19.7366 18.0178 19.2678C18.4866 18.7989 18.75 18.163 18.75 17.5C18.75 16.837 18.4866 16.2011 18.0178 15.7322C17.5489 15.2634 16.913 15 16.25 15H12.5C11.75 15 11.125 15.25 10.75 15.75L3.75 22.5" stroke="#2C2C2C" stroke-width="2.5" stroke-linecap="round" stroke-linejoin="round"/>
<path d="M8.75009 27.5028L10.7501 25.7528C11.1251 25.2528 11.7501 25.0028 12.5001 25.0028H17.5001C18.8751 25.0028 20.1251 24.5028 21.0001 23.5028L26.7501 18.0028C27.2325 17.5469 27.514 16.9182 27.5327 16.2547C27.5515 15.5913 27.3059 14.9476 26.8501 14.4653C26.3943 13.9829 25.7655 13.7014 25.1021 13.6826C24.4386 13.6639 23.795 13.9094 23.3126 14.3653L18.0626 19.2403" stroke="#2C2C2C" stroke-width="2.5" stroke-linecap="round" stroke-linejoin="round"/>
<path d="M2.49991 21.252L9.99991 28.752" stroke="#2C2C2C" stroke-width="2.5" stroke-linecap="round" stroke-linejoin="round"/>
<path d="M15 4.74805L13.875 4.24805" stroke="#2C2C2C" stroke-width="2.5" stroke-linecap="round" stroke-linejoin="round"/>
<path d="M15 7.5L13.875 8" stroke="#2C2C2C" stroke-width="2.5" stroke-linecap="round" stroke-linejoin="round"/>
<path d="M17.1249 2.625L16.6249 1.5" stroke="#2C2C2C" stroke-width="2.5" stroke-linecap="round" stroke-linejoin="round"/>
<path d="M17.1249 9.62695L16.6249 10.752" stroke="#2C2C2C" stroke-width="2.5" stroke-linecap="round" stroke-linejoin="round"/>
<path d="M20.375 1.5L19.875 2.625" stroke="#2C2C2C" stroke-width="2.5" stroke-linecap="round" stroke-linejoin="round"/>
<path d="M20.375 10.752L19.875 9.62695" stroke="#2C2C2C" stroke-width="2.5" stroke-linecap="round" stroke-linejoin="round"/>
<path d="M23.125 4.24805L22 4.74805" stroke="#2C2C2C" stroke-width="2.5" stroke-linecap="round" stroke-linejoin="round"/>
<path d="M23.125 8L22 7.5" stroke="#2C2C2C" stroke-width="2.5" stroke-linecap="round" stroke-linejoin="round"/>
<path d="M18.4999 9.87305C20.5709 9.87305 22.2499 8.19411 22.2499 6.12305C22.2499 4.05198 20.5709 2.37305 18.4999 2.37305C16.4288 2.37305 14.7499 4.05198 14.7499 6.12305C14.7499 8.19411 16.4288 9.87305 18.4999 9.87305Z" stroke="#2C2C2C" stroke-width="2.5" stroke-linecap="round" stroke-linejoin="round"/>
</g>
<defs>
<clipPath id="clip0_449_1851">
<rect width="30" height="30" fill="white"/>
</clipPath>
</defs>
</svg>
