<svg width="31" height="31" viewBox="0 0 31 31" fill="none" xmlns="http://www.w3.org/2000/svg">
<path d="M25.5 17.0006C25.5 23.2506 21.125 26.3756 15.925 28.1881C15.6527 28.2803 15.3569 28.2759 15.0875 28.1756C9.875 26.3756 5.5 23.2506 5.5 17.0006V8.25056C5.5 7.91904 5.6317 7.6011 5.86612 7.36668C6.10054 7.13226 6.41848 7.00056 6.75 7.00056C9.25 7.00056 12.375 5.50056 14.55 3.60056C14.8148 3.37431 15.1517 3.25 15.5 3.25C15.8483 3.25 16.1852 3.37431 16.45 3.60056C18.6375 5.51306 21.75 7.00056 24.25 7.00056C24.5815 7.00056 24.8995 7.13226 25.1339 7.36668C25.3683 7.6011 25.5 7.91904 25.5 8.25056V17.0006Z" stroke="#2C2C2C" stroke-width="2.5" stroke-linecap="round" stroke-linejoin="round"/>
<path d="M11.75 15.75L14.25 18.25L19.25 13.25" stroke="#2C2C2C" stroke-width="2.5" stroke-linecap="round" stroke-linejoin="round"/>
</svg>
