<svg width="18" height="19" viewBox="0 0 18 19" fill="none" xmlns="http://www.w3.org/2000/svg">
<g clip-path="url(#clip0_177_2883)">
<path d="M9.75 2.38086C11.5402 2.38086 13.2571 3.09202 14.523 4.35789C15.7888 5.62376 16.5 7.34065 16.5 9.13086" stroke="#2C2C2C" stroke-width="1.5" stroke-linecap="round" stroke-linejoin="round"/>
<path d="M9.75 5.38086C10.7446 5.38086 11.6984 5.77595 12.4017 6.47921C13.1049 7.18247 13.5 8.1363 13.5 9.13086" stroke="#2C2C2C" stroke-width="1.5" stroke-linecap="round" stroke-linejoin="round"/>
<path d="M10.374 13.3069C10.5289 13.378 10.7034 13.3942 10.8688 13.3529C11.0341 13.3116 11.1805 13.2152 11.2838 13.0796L11.55 12.7309C11.6897 12.5446 11.8709 12.3934 12.0792 12.2892C12.2875 12.1851 12.5171 12.1309 12.75 12.1309H15C15.3978 12.1309 15.7794 12.2889 16.0607 12.5702C16.342 12.8515 16.5 13.233 16.5 13.6309V15.8809C16.5 16.2787 16.342 16.6602 16.0607 16.9415C15.7794 17.2228 15.3978 17.3809 15 17.3809C11.4196 17.3809 7.9858 15.9585 5.45406 13.4268C2.92232 10.8951 1.5 7.46128 1.5 3.88086C1.5 3.48303 1.65804 3.1015 1.93934 2.8202C2.22064 2.53889 2.60218 2.38086 3 2.38086H5.25C5.64782 2.38086 6.02936 2.53889 6.31066 2.8202C6.59196 3.1015 6.75 3.48303 6.75 3.88086V6.13086C6.75 6.36373 6.69578 6.5934 6.59164 6.80168C6.4875 7.00996 6.33629 7.19114 6.15 7.33086L5.799 7.59411C5.66131 7.69924 5.56426 7.8488 5.52434 8.01737C5.48442 8.18595 5.50409 8.36314 5.58 8.51886C6.60501 10.6008 8.29082 12.2845 10.374 13.3069Z" stroke="#2C2C2C" stroke-width="1.5" stroke-linecap="round" stroke-linejoin="round"/>
</g>
<defs>
<clipPath id="clip0_177_2883">
<rect width="18" height="18" fill="white" transform="translate(0 0.880859)"/>
</clipPath>
</defs>
</svg>
