<svg width="64" height="64" viewBox="0 0 64 64" fill="none" xmlns="http://www.w3.org/2000/svg">
<g clip-path="url(#clip0_449_1953)">
<g clip-path="url(#clip1_449_1953)">
<path d="M32 58.5H8C5.51855 58.5 3.5 56.4814 3.5 54V8C3.5 5.51855 5.51855 3.5 8 3.5H48C50.4814 3.5 52.5 5.51855 52.5 8V34.5898C52.5 35.418 51.8281 36.0898 51 36.0898C50.1719 36.0898 49.5 35.418 49.5 34.5898V8C49.5 7.17285 48.8271 6.5 48 6.5H8C7.17285 6.5 6.5 7.17285 6.5 8V54C6.5 54.8271 7.17285 55.5 8 55.5H32C32.8281 55.5 33.5 56.1719 33.5 57C33.5 57.8281 32.8281 58.5 32 58.5Z" fill="#2C2C2C"/>
<path d="M30 36.5H12C11.1719 36.5 10.5 35.8281 10.5 35V12C10.5 11.1719 11.1719 10.5 12 10.5C12.8281 10.5 13.5 11.1719 13.5 12V33.5H30C30.8281 33.5 31.5 34.1719 31.5 35C31.5 35.8281 30.8281 36.5 30 36.5Z" fill="#2C2C2C"/>
<path d="M11.9988 29.5007C11.6482 29.5007 11.2966 29.3786 11.0124 29.1296C10.3884 28.5837 10.3249 27.6364 10.8708 27.0134L17.8708 19.0134C18.1443 18.7009 18.5349 18.5153 18.9499 18.5017C19.3552 18.4763 19.7673 18.6462 20.0603 18.9401L25.8884 24.7683L33.8386 15.0505C34.1072 14.7224 34.5017 14.5241 34.9246 14.5026C35.3591 14.487 35.7605 14.6403 36.0603 14.9401L39.8757 18.7546L42.8288 15.0632C43.3454 14.4167 44.2878 14.3102 44.9372 14.8298C45.5837 15.3474 45.6882 16.2907 45.1706 16.9382L41.1706 21.9382C40.904 22.2712 40.5085 22.4743 40.0828 22.4987C39.6628 22.5163 39.241 22.363 38.9392 22.0612L35.1111 18.2331L27.1609 27.9509C26.8923 28.279 26.4978 28.4772 26.0749 28.4987C25.6365 28.5104 25.239 28.3601 24.9392 28.0612L19.073 22.195L13.1287 28.988C12.8318 29.3269 12.4167 29.5007 11.9988 29.5007Z" fill="#2C2C2C"/>
<path d="M28 43.5H12C11.1719 43.5 10.5 42.8281 10.5 42C10.5 41.1719 11.1719 40.5 12 40.5H28C28.8281 40.5 29.5 41.1719 29.5 42C29.5 42.8281 28.8281 43.5 28 43.5Z" fill="#2C2C2C"/>
<path d="M21 49.5H12C11.1719 49.5 10.5 48.8281 10.5 48C10.5 47.1719 11.1719 46.5 12 46.5H21C21.8281 46.5 22.5 47.1719 22.5 48C22.5 48.8281 21.8281 49.5 21 49.5Z" fill="#2C2C2C"/>
<path d="M46.3506 32.2012C38.5479 32.2012 32.2002 38.5489 32.2002 46.3516C32.2002 54.1533 38.5479 60.501 46.3506 60.501C54.1523 60.501 60.5 54.1533 60.5 46.3516C60.5 38.5489 54.1523 32.2012 46.3506 32.2012ZM53.0166 52.4824C52.7207 52.8037 52.3164 52.9668 51.9121 52.9668C51.5488 52.9668 51.1846 52.836 50.8965 52.5713L45.335 47.4561C45.0264 47.1719 44.8506 46.7715 44.8506 46.3516V38.9571C44.8506 38.1289 45.5225 37.4571 46.3506 37.4571C47.1787 37.4571 47.8506 38.1289 47.8506 38.9571V45.6934L52.9277 50.3623C53.5371 50.9239 53.5771 51.8721 53.0166 52.4824Z" fill="#FFB900"/>
</g>
</g>
<defs>
<clipPath id="clip0_449_1953">
<rect width="64" height="64" fill="white"/>
</clipPath>
<clipPath id="clip1_449_1953">
<rect width="64" height="64" fill="white"/>
</clipPath>
</defs>
</svg>
