<svg width="64" height="64" viewBox="0 0 64 64" fill="none" xmlns="http://www.w3.org/2000/svg">
<g clip-path="url(#clip0_449_1946)">
<g clip-path="url(#clip1_449_1946)">
<path d="M36.9502 60.4998H27.0498C26.3037 60.4998 25.6709 59.951 25.5649 59.2127L24.7983 53.8728C23.9546 53.5828 23.1265 53.242 22.3213 52.8514L18.0205 56.0789C17.4238 56.5291 16.5869 56.4685 16.0596 55.9402L9.05957 48.9402C8.53125 48.4119 8.47217 47.576 8.92041 46.9793L12.1479 42.6785C11.7588 41.8748 11.4175 41.0467 11.1269 40.201L5.78711 39.4344C5.04834 39.3289 4.5 38.6961 4.5 37.95V28.0496C4.5 27.3035 5.04834 26.6707 5.78711 26.5652L11.1269 25.7986C11.4175 24.9529 11.7588 24.1238 12.1484 23.3201L8.91943 19.0095C8.47216 18.4119 8.53173 17.576 9.06005 17.0486L16.0601 10.0584C16.6465 9.47241 17.5962 9.47241 18.1816 10.0603C18.7671 10.6463 18.7661 11.5955 18.1802 12.1814L12.1006 18.2517L15.1108 22.2703C15.4614 22.738 15.5078 23.3679 15.23 23.8826C14.5977 25.0535 14.0859 26.2957 13.709 27.575C13.5429 28.1375 13.064 28.5515 12.4829 28.6345L7.49999 29.3494V36.6501L12.4829 37.365C13.064 37.448 13.543 37.8621 13.709 38.4246C14.0859 39.7039 14.5976 40.946 15.23 42.1169C15.5083 42.6326 15.4614 43.2624 15.1098 43.7302L12.1011 47.739L17.2607 52.8992L21.2695 49.8904C21.7383 49.5388 22.3677 49.4929 22.8818 49.7693C24.0576 50.4031 25.2998 50.9158 26.5742 51.2917C27.1372 51.4578 27.5513 51.9363 27.6348 52.5173L28.3501 57.4998H35.6499L36.3652 52.5173C36.4487 51.9363 36.8628 51.4578 37.4258 51.2917C38.7002 50.9158 39.9424 50.4031 41.1181 49.7693C41.6323 49.4929 42.2627 49.5388 42.7304 49.8904L46.7402 52.8992L51.8994 47.7478L48.8891 43.7292C48.5385 43.2615 48.4922 42.6316 48.77 42.1169C49.4023 40.946 49.914 39.7039 50.291 38.4246C50.457 37.8621 50.936 37.448 51.5171 37.365L56.5 36.6502V29.3494L51.5171 28.6345C50.936 28.5515 50.457 28.1375 50.291 27.575C49.9141 26.2957 49.4023 25.0535 48.77 23.8826C48.4917 23.367 48.5385 22.7371 48.8901 22.2693L51.8989 18.2605L46.7402 13.1013L42.9013 15.989C42.2402 16.4861 41.2998 16.3543 40.8013 15.6912C40.3032 15.0291 40.4365 14.0886 41.0986 13.5906L45.9785 9.92065C46.5747 9.47241 47.4121 9.53003 47.9404 10.0593L54.9404 17.0593C55.4687 17.5877 55.5278 18.4236 55.0796 19.0203L51.852 23.3211C52.2412 24.1248 52.5825 24.9529 52.873 25.7986L58.2129 26.5652C58.9516 26.6707 59.5 27.3035 59.5 28.0496V37.95C59.5 38.6961 58.9516 39.3289 58.2129 39.4344L52.873 40.201C52.5825 41.0467 52.2412 41.8758 51.8515 42.6795L55.0805 46.99C55.5278 47.5877 55.4682 48.4236 54.9399 48.951L47.9399 55.9412C47.4106 56.4676 46.5771 56.5281 45.9795 56.0789L41.6787 52.8514C40.8735 53.242 40.0454 53.5828 39.2016 53.8728L38.435 59.2127C38.3291 59.951 37.6963 60.4998 36.9502 60.4998Z" fill="#2C2C2C"/>
<path d="M32 45.8737C24.9009 45.8737 19.125 40.0983 19.125 32.9987C19.125 31.862 19.2852 30.7067 19.6011 29.5651C19.8223 28.7672 20.6494 28.2975 21.4468 28.5202C22.2456 28.7409 22.7134 29.567 22.4927 30.3659C22.2485 31.2467 22.125 32.1325 22.125 32.9987C22.125 38.444 26.5547 42.8737 32 42.8737C37.4453 42.8737 41.875 38.444 41.875 32.9987C41.875 32.1325 41.7514 31.2467 41.5073 30.3659C41.2866 29.567 41.7544 28.7409 42.5532 28.5202C43.3506 28.2995 44.1777 28.7672 44.3989 29.5651C44.7148 30.7067 44.875 31.862 44.875 32.9987C44.875 40.0983 39.0991 45.8737 32 45.8737Z" fill="#2C2C2C"/>
<path d="M24.6053 23.8159C25.1737 24.2934 25.4999 24.9897 25.4999 25.727V26.5249H30.4999V20.6367L25.9383 16.0698C25.3534 15.4838 25.3539 14.5346 25.9398 13.9487C26.5262 13.3647 27.475 13.3628 28.0614 13.9506L31.9999 17.893L35.9383 13.9506C36.5238 13.3628 37.4735 13.3647 38.0599 13.9487C38.6459 14.5346 38.6464 15.4839 38.0614 16.0698L33.4999 20.6367V26.5249H38.4999V25.727C38.4999 24.9868 38.8148 24.3002 39.3641 23.8413C41.9925 21.646 43.4999 18.4272 43.4999 15.0102C43.4999 11.7387 42.1019 8.61181 39.6649 6.4292C37.2333 4.25147 33.9637 3.2124 30.6942 3.57178C25.3436 4.16455 21.0799 8.49073 20.5565 13.8598C20.1864 17.6499 21.7001 21.3715 24.6053 23.8159Z" fill="#FFB900"/>
<path d="M25.5 29.5234V31.0273C25.5 33.5107 27.5185 35.5302 30 35.5302H34C36.4815 35.5302 38.5 33.5107 38.5 31.0273V29.5234H25.5Z" fill="#FFB900"/>
</g>
</g>
<defs>
<clipPath id="clip0_449_1946">
<rect width="64" height="64" fill="white"/>
</clipPath>
<clipPath id="clip1_449_1946">
<rect width="64" height="64" fill="white"/>
</clipPath>
</defs>
</svg>
