<svg width="36" height="36" viewBox="0 0 36 36" fill="none" xmlns="http://www.w3.org/2000/svg">
<path d="M22.0104 31.1809L19.4583 32.6392C19.0149 32.8952 18.512 33.0299 18 33.0299C17.488 33.0299 16.9851 32.8952 16.5417 32.6392L6.33333 26.8059C5.89038 26.5501 5.52247 26.1824 5.26651 25.7396C5.01054 25.2968 4.87552 24.7944 4.875 24.2829V12.6163C4.87552 12.1048 5.01054 11.6025 5.26651 11.1596C5.52247 10.7168 5.89038 10.3491 6.33333 10.0934L16.5417 4.26002C16.9851 4.00403 17.488 3.86926 18 3.86926C18.512 3.86926 19.0149 4.00403 19.4583 4.26002L29.6667 10.0934C30.1096 10.3491 30.4775 10.7168 30.7335 11.1596C30.9895 11.6025 31.1245 12.1048 31.125 12.6163V15.5329" stroke="#363636" stroke-width="2" stroke-linecap="round" stroke-linejoin="round"/>
<path d="M18 33.0327V18.4493" stroke="#363636" stroke-width="2" stroke-linecap="round" stroke-linejoin="round"/>
<path d="M5.29785 11.1583L17.9999 18.45L30.702 11.1583" stroke="#363636" stroke-width="2" stroke-linecap="round" stroke-linejoin="round"/>
<path d="M11.4375 7.1759L24.5625 14.6863" stroke="#363636" stroke-width="2" stroke-linecap="round" stroke-linejoin="round"/>
<path d="M24.6499 26.9336L25.7776 26.4669" stroke="#FFB900" stroke-width="2.44352" stroke-linecap="round" stroke-linejoin="round"/>
<path d="M25.7777 23.6614L24.65 23.1935" stroke="#FFB900" stroke-width="2.44352" stroke-linecap="round" stroke-linejoin="round"/>
<path d="M27.7619 21.6766L27.2939 20.549" stroke="#FFB900" stroke-width="2.44352" stroke-linecap="round" stroke-linejoin="round"/>
<path d="M27.7619 28.4513L27.2939 29.5802" stroke="#FFB900" stroke-width="2.44352" stroke-linecap="round" stroke-linejoin="round"/>
<path d="M30.5669 21.6766L31.0348 20.549" stroke="#FFB900" stroke-width="2.44352" stroke-linecap="round" stroke-linejoin="round"/>
<path d="M31.0336 29.5802L30.5669 28.4513" stroke="#FFB900" stroke-width="2.44352" stroke-linecap="round" stroke-linejoin="round"/>
<path d="M32.5511 23.6614L33.6801 23.1935" stroke="#FFB900" stroke-width="2.44352" stroke-linecap="round" stroke-linejoin="round"/>
<path d="M32.5513 26.4669L33.6802 26.9349" stroke="#FFB900" stroke-width="2.44352" stroke-linecap="round" stroke-linejoin="round"/>
<path d="M29.1643 28.7291C31.1886 28.7291 32.8296 27.0881 32.8296 25.0638C32.8296 23.0396 31.1886 21.3986 29.1643 21.3986C27.14 21.3986 25.499 23.0396 25.499 25.0638C25.499 27.0881 27.14 28.7291 29.1643 28.7291Z" stroke="#FFB900" stroke-width="2.44352" stroke-linecap="round" stroke-linejoin="round"/>
</svg>
