<svg width="31" height="30" viewBox="0 0 31 30" fill="none" xmlns="http://www.w3.org/2000/svg">
<rect x="0.69043" width="30" height="30" rx="15" fill="#2C2C2C"/>
<path d="M15.6904 12.4248C15.29 12.4248 14.9141 12.498 14.5625 12.6445C14.2109 12.8008 13.9058 13.0107 13.647 13.2744C13.3882 13.5381 13.1807 13.8408 13.0244 14.1826C12.8779 14.5342 12.8047 14.9102 12.8047 15.3105C12.8047 15.7109 12.8779 16.0869 13.0244 16.4385C13.1807 16.79 13.3882 17.0977 13.647 17.3613C13.9058 17.625 14.2109 17.8301 14.5625 17.9766C14.9141 18.1328 15.29 18.2109 15.6904 18.2109C16.0908 18.2109 16.4668 18.1328 16.8184 17.9766C17.1699 17.8301 17.4751 17.625 17.7339 17.3613C17.9927 17.0977 18.2002 16.79 18.3564 16.4385C18.5029 16.0869 18.5762 15.7109 18.5762 15.3105C18.5762 14.9102 18.5029 14.5342 18.3564 14.1826C18.2002 13.8408 17.9927 13.5381 17.7339 13.2744C17.4751 13.0107 17.1699 12.8008 16.8184 12.6445C16.4668 12.498 16.0908 12.4248 15.6904 12.4248ZM15.6904 17.1855C15.1729 17.1855 14.731 17.0024 14.3647 16.6362C13.9985 16.27 13.8154 15.8281 13.8154 15.3105C13.8154 14.793 13.9985 14.3511 14.3647 13.9849C14.731 13.6187 15.1729 13.4355 15.6904 13.4355C16.208 13.4355 16.6499 13.6187 17.0161 13.9849C17.3823 14.3511 17.5654 14.793 17.5654 15.3105C17.5654 15.8281 17.3823 16.27 17.0161 16.6362C16.6499 17.0024 16.208 17.1855 15.6904 17.1855ZM19.3672 12.3223C19.3672 12.5078 19.3013 12.6665 19.1694 12.7983C19.0376 12.9302 18.8789 12.9961 18.6934 12.9961C18.5078 12.9961 18.3491 12.9302 18.2173 12.7983C18.0854 12.6665 18.0195 12.5078 18.0195 12.3223C18.0195 12.1367 18.0854 11.978 18.2173 11.8462C18.3491 11.7144 18.5078 11.6484 18.6934 11.6484C18.8789 11.6484 19.0376 11.7144 19.1694 11.8462C19.3013 11.978 19.3672 12.1367 19.3672 12.3223ZM21.0225 11.6338C20.876 11.2529 20.6611 10.9209 20.3779 10.6377C20.0947 10.3545 19.7676 10.1396 19.3965 9.99316H19.3818C19.1768 9.91504 18.9595 9.85156 18.73 9.80273C18.5005 9.75391 18.2637 9.72949 18.0195 9.72949H18.0049C17.7119 9.70996 17.4434 9.69775 17.1992 9.69287C16.9551 9.68799 16.4521 9.68555 15.6904 9.68555C14.9287 9.68555 14.4258 9.68799 14.1816 9.69287C13.9375 9.69775 13.6689 9.70996 13.376 9.72949C13.1318 9.72949 12.8926 9.75391 12.6582 9.80273C12.4238 9.85156 12.1992 9.91504 11.9844 9.99316H12.0137C11.6328 10.1396 11.3008 10.3545 11.0176 10.6377C10.7344 10.9209 10.5195 11.248 10.373 11.6191L10.3584 11.6338C10.2803 11.8389 10.2192 12.0562 10.1753 12.2856C10.1313 12.5151 10.1045 12.752 10.0947 12.9961C10.085 13.2988 10.0776 13.5698 10.0728 13.8091C10.0679 14.0483 10.0654 14.5488 10.0654 15.3105C10.0654 16.082 10.0679 16.5874 10.0728 16.8267C10.0776 17.0659 10.085 17.3369 10.0947 17.6396C10.1045 17.874 10.1313 18.106 10.1753 18.3354C10.2192 18.5649 10.2803 18.7871 10.3584 19.002C10.5146 19.3828 10.7344 19.7148 11.0176 19.998C11.3008 20.2812 11.623 20.4961 11.9844 20.6426H12.0137C12.209 20.7305 12.4214 20.7988 12.6509 20.8477C12.8804 20.8965 13.1172 20.9258 13.3613 20.9355H13.376C13.6787 20.9453 13.9497 20.9526 14.189 20.9575C14.4282 20.9624 14.9287 20.9648 15.6904 20.9648C16.4521 20.9648 16.9551 20.9624 17.1992 20.9575C17.4434 20.9526 17.7168 20.9453 18.0195 20.9355C18.2637 20.9258 18.5029 20.8989 18.7373 20.855C18.9717 20.811 19.1963 20.7451 19.4111 20.6572L19.3818 20.6719C19.7627 20.5156 20.0947 20.2983 20.3779 20.02C20.6611 19.7417 20.876 19.417 21.0225 19.0459V19.0166C21.1104 18.8018 21.1763 18.5796 21.2202 18.3501C21.2642 18.1206 21.2861 17.8887 21.2861 17.6543C21.2959 17.3516 21.3032 17.0806 21.3081 16.8413C21.313 16.6021 21.3154 16.1016 21.3154 15.3398C21.3154 14.5781 21.3154 14.0752 21.3154 13.8311C21.3154 13.5869 21.3057 13.3184 21.2861 13.0254C21.2861 12.7715 21.2617 12.5249 21.2129 12.2856C21.1641 12.0464 21.0957 11.8193 21.0078 11.6045L21.0225 11.6338ZM20.2607 17.5957C20.2607 17.7812 20.2437 17.9644 20.2095 18.145C20.1753 18.3257 20.124 18.499 20.0557 18.665L20.0703 18.6504C19.9727 18.8945 19.8311 19.1094 19.6455 19.2949C19.46 19.4805 19.25 19.6172 19.0156 19.7051L19.001 19.7197C18.8447 19.7783 18.6787 19.8247 18.5029 19.8589C18.3271 19.8931 18.1465 19.9102 17.9609 19.9102C17.6582 19.9199 17.3921 19.9272 17.1626 19.9321C16.9331 19.937 16.4375 19.9395 15.6758 19.9395C14.9141 19.9395 14.4185 19.9395 14.189 19.9395C13.9595 19.9395 13.6934 19.9297 13.3906 19.9102C13.1953 19.9102 13.0098 19.8931 12.834 19.8589C12.6582 19.8247 12.4873 19.7734 12.3213 19.7051L12.3359 19.7197C12.0918 19.6221 11.877 19.4805 11.6914 19.2949C11.5059 19.1094 11.3643 18.8994 11.2666 18.665V18.6504C11.208 18.4941 11.1616 18.3281 11.1274 18.1523C11.0933 17.9766 11.0762 17.7959 11.0762 17.6104V17.5957C11.0566 17.3027 11.0469 17.0391 11.0469 16.8047C11.0469 16.5703 11.0469 16.0771 11.0469 15.3252C11.0469 14.5635 11.0469 14.0679 11.0469 13.8384C11.0469 13.6089 11.0566 13.3428 11.0762 13.04C11.0762 12.8447 11.0933 12.6567 11.1274 12.4761C11.1616 12.2954 11.2129 12.1221 11.2812 11.9561L11.2666 11.9854C11.3643 11.7314 11.5059 11.5117 11.6914 11.3262C11.877 11.1406 12.0918 11.0039 12.3359 10.916C12.4922 10.8574 12.6582 10.811 12.834 10.7769C13.0098 10.7427 13.1953 10.7207 13.3906 10.7109C13.6836 10.7012 13.9473 10.6938 14.1816 10.689C14.416 10.6841 14.9141 10.6816 15.6758 10.6816C16.4375 10.6816 16.9331 10.6841 17.1626 10.689C17.3921 10.6938 17.6582 10.7012 17.9609 10.7109C18.1465 10.7207 18.3271 10.7427 18.5029 10.7769C18.6787 10.811 18.8496 10.8574 19.0156 10.916H19.001C19.2451 11.0137 19.46 11.1528 19.6455 11.3335C19.8311 11.5142 19.9727 11.7266 20.0703 11.9707V11.9854C20.1289 12.1318 20.1753 12.2954 20.2095 12.4761C20.2437 12.6567 20.2607 12.8398 20.2607 13.0254C20.2705 13.3184 20.2778 13.582 20.2827 13.8164C20.2876 14.0508 20.29 14.5488 20.29 15.3105C20.29 16.0723 20.29 16.5679 20.29 16.7974C20.29 17.0269 20.2852 17.293 20.2754 17.5957H20.2607Z" fill="white"/>
</svg>
