<svg width="25" height="24" viewBox="0 0 25 24" fill="none" xmlns="http://www.w3.org/2000/svg">
<path d="M12.5 2V4" stroke="#2C2C2C" stroke-width="2" stroke-linecap="round" stroke-linejoin="round"/>
<path d="M5.42993 4.92969L6.83993 6.33969" stroke="#2C2C2C" stroke-width="2" stroke-linecap="round" stroke-linejoin="round"/>
<path d="M20.5 12H22.5" stroke="#2C2C2C" stroke-width="2" stroke-linecap="round" stroke-linejoin="round"/>
<path d="M19.57 4.92969L18.16 6.33969" stroke="#2C2C2C" stroke-width="2" stroke-linecap="round" stroke-linejoin="round"/>
<path d="M16.447 12.6496C16.57 11.9041 16.4794 11.139 16.1857 10.4428C15.8919 9.74668 15.4069 9.14799 14.787 8.71605C14.167 8.28412 13.4374 8.03662 12.6826 8.0022C11.9278 7.96778 11.1787 8.14786 10.522 8.52158" stroke="#2C2C2C" stroke-width="2" stroke-linecap="round" stroke-linejoin="round"/>
<path d="M13.5 22H7.49996C6.55393 21.9998 5.62737 21.7312 4.82788 21.2255C4.0284 20.7197 3.3888 19.9975 2.98339 19.1427C2.57797 18.288 2.42336 17.3358 2.53752 16.3966C2.65168 15.4575 3.02992 14.5701 3.62832 13.8373C4.22672 13.1046 5.02071 12.5567 5.91808 12.2572C6.81545 11.9577 7.77938 11.9189 8.6979 12.1454C9.61642 12.3718 10.4519 12.8542 11.1072 13.5366C11.7625 14.2189 12.2108 15.0731 12.4 16H13.5C14.2956 16 15.0587 16.3161 15.6213 16.8787C16.1839 17.4413 16.5 18.2044 16.5 19C16.5 19.7956 16.1839 20.5587 15.6213 21.1213C15.0587 21.6839 14.2956 22 13.5 22Z" stroke="#2C2C2C" stroke-width="2" stroke-linecap="round" stroke-linejoin="round"/>
</svg>
