<svg width="36" height="36" viewBox="0 0 36 36" fill="none" xmlns="http://www.w3.org/2000/svg">
<path d="M18 23.9141V31.2057" stroke="#2C2C2C" stroke-width="2" stroke-linecap="round" stroke-linejoin="round"/>
<path d="M23.8335 18.9961V20.2061" stroke="#2C2C2C" stroke-width="2" stroke-linecap="round" stroke-linejoin="round"/>
<path d="M29.6665 14.5801V19.6201" stroke="#2C2C2C" stroke-width="2" stroke-linecap="round" stroke-linejoin="round"/>
<path d="M32.5833 4.95508L19.9746 17.5638C19.9068 17.6317 19.8264 17.6856 19.7378 17.7224C19.6492 17.7591 19.5542 17.778 19.4583 17.778C19.3624 17.778 19.2674 17.7591 19.1789 17.7224C19.0903 17.6856 19.0098 17.6317 18.9421 17.5638L14.1412 12.763C14.0045 12.6263 13.8191 12.5495 13.6257 12.5495C13.4324 12.5495 13.2469 12.6263 13.1102 12.763L3.41666 22.4551" stroke="#2C2C2C" stroke-width="2" stroke-linecap="round" stroke-linejoin="round"/>
<path d="M6.33334 26.8301V31.2051" stroke="#2C2C2C" stroke-width="2" stroke-linecap="round" stroke-linejoin="round"/>
<path d="M12.1665 20.9961V31.2044" stroke="#2C2C2C" stroke-width="2" stroke-linecap="round" stroke-linejoin="round"/>
<path d="M27.375 31.8301C29.7912 31.8301 31.75 29.8713 31.75 27.4551C31.75 25.0388 29.7912 23.0801 27.375 23.0801C24.9588 23.0801 23 25.0388 23 27.4551C23 29.8713 24.9588 31.8301 27.375 31.8301Z" stroke="#FFB900" stroke-width="2.5" stroke-linecap="round" stroke-linejoin="round"/>
<path d="M33.2086 33.2885L30.4378 30.5177" stroke="#FFB900" stroke-width="2.5" stroke-linecap="round" stroke-linejoin="round"/>
</svg>
