<svg width="36" height="36" viewBox="0 0 36 36" fill="none" xmlns="http://www.w3.org/2000/svg">
<g clip-path="url(#clip0_449_1922)">
<g clip-path="url(#clip1_449_1922)">
<path d="M8.15625 29.9435H5.42188C3.76336 29.9435 2.41406 28.5942 2.41406 26.9357V22.0138C2.41406 20.3553 3.76336 19.006 5.42188 19.006H8.15625C9.21155 19.006 10.0703 19.8648 10.0703 20.92V28.0294C10.0703 29.0847 9.21155 29.9435 8.15625 29.9435ZM5.42188 20.6466C4.66805 20.6466 4.05469 21.26 4.05469 22.0138V26.9357C4.05469 27.6895 4.66805 28.3029 5.42188 28.3029H8.15625C8.30712 28.3029 8.42969 28.1803 8.42969 28.0294V20.92C8.42969 20.7692 8.30712 20.6466 8.15625 20.6466H5.42188Z" fill="#2C2C2C"/>
<path d="M27.2969 29.9435H24.5625C23.5072 29.9435 22.6484 29.0847 22.6484 28.0294V20.92C22.6484 19.8648 23.5072 19.006 24.5625 19.006H27.2969C28.9551 19.006 30.3047 20.3553 30.3047 22.0138V26.9357C30.3047 28.5942 28.9551 29.9435 27.2969 29.9435ZM24.5625 20.6466C24.4119 20.6466 24.2891 20.7692 24.2891 20.92V28.0294C24.2891 28.1803 24.4119 28.3029 24.5625 28.3029H27.2969C28.051 28.3029 28.6641 27.6895 28.6641 26.9357V22.0138C28.6641 21.26 28.051 20.6466 27.2969 20.6466H24.5625Z" fill="#2C2C2C"/>
<path d="M22.9219 33.2247H16.0859C14.8798 33.2247 13.8984 32.2434 13.8984 31.0372C13.8984 29.8311 14.8798 28.8497 16.0859 28.8497H16.9062C17.9615 28.8497 18.8203 29.7085 18.8203 30.7638V31.5841H22.9219C24.2784 31.5841 25.3823 30.48 25.3828 29.1229C25.3828 28.67 25.7502 28.3029 26.2031 28.3029C26.6565 28.3029 27.0234 28.6703 27.0234 29.1234C27.0229 31.3849 25.1831 33.2247 22.9219 33.2247ZM16.0859 30.4904C15.7845 30.4904 15.5391 30.7358 15.5391 31.0372C15.5391 31.3387 15.7845 31.5841 16.0859 31.5841H17.1794L17.1797 30.7638C17.1797 30.6129 17.0571 30.4904 16.9062 30.4904H16.0859Z" fill="#2C2C2C"/>
<path d="M26.2032 25.0212C25.7503 25.0212 25.3829 24.6541 25.3829 24.2009V17.6384C25.3829 16.9249 25.2969 16.2058 25.1271 15.5011C25.0208 15.0605 25.2916 14.6175 25.7322 14.5115C26.1755 14.405 26.6166 14.6765 26.7218 15.1166C26.9221 15.9471 27.0235 16.7957 27.0235 17.6384V24.2009C27.0235 24.6541 26.6561 25.0212 26.2032 25.0212Z" fill="#2C2C2C"/>
<path d="M6.51562 25.0216C6.06248 25.0216 5.69531 24.6544 5.69531 24.2013V17.6388C5.69531 11.7586 10.4791 6.97473 16.3594 6.97473C16.8176 6.97473 17.2721 7.0049 17.7108 7.06418C18.1597 7.1248 18.4745 7.53789 18.4136 7.98703C18.353 8.43564 17.941 8.74833 17.4908 8.68985C17.1249 8.64045 16.7442 8.61535 16.3594 8.61535C11.3838 8.61535 7.33594 12.6633 7.33594 17.6388V24.2013C7.33594 24.6544 6.96877 25.0216 6.51562 25.0216Z" fill="#2C2C2C"/>
<path d="M9.20593 14.8924C8.94397 14.8924 8.67881 14.8502 8.41979 14.7632L7.14233 14.3372C6.71241 14.1941 6.48009 13.7295 6.62349 13.2998C6.76662 12.8699 7.23258 12.6381 7.6609 12.781L8.9405 13.2075C9.2604 13.3153 9.6054 13.2187 9.82249 12.9623C10.7325 11.8718 12.2925 10.4536 14.5289 9.92166C14.9695 9.82018 15.412 10.0891 15.5169 10.53C15.6216 10.9708 15.3492 11.413 14.9086 11.518C13.1104 11.9455 11.8327 13.114 11.0773 14.019C10.5966 14.5851 9.91249 14.8924 9.20593 14.8924Z" fill="#2C2C2C"/>
<path d="M25.1094 2.05286C20.4353 2.05286 16.6328 5.21929 16.6328 9.1115C16.6328 11.4995 18.0355 13.6678 20.407 14.9805C20.5437 15.8163 20.4177 16.5536 20.0257 17.2254C19.8452 17.5352 19.8863 17.9264 20.1282 18.1915C20.2874 18.3659 20.509 18.4591 20.7344 18.4591C20.8513 18.4591 20.9699 18.434 21.0804 18.3825C22.2393 17.8428 23.2418 17.1002 24.1331 16.1191C24.4712 16.1536 24.7932 16.1704 25.1094 16.1704C29.7835 16.1704 33.5859 13.0037 33.5859 9.1115C33.5859 5.2193 29.7835 2.05286 25.1094 2.05286ZM21.2812 10.2054C20.6772 10.2054 20.1875 9.71565 20.1875 9.1116C20.1875 8.50752 20.6772 8.01785 21.2812 8.01785C21.8853 8.01785 22.375 8.50752 22.375 9.1116C22.375 9.71565 21.8853 10.2054 21.2812 10.2054ZM25.1094 10.2054C24.5053 10.2054 24.0156 9.71565 24.0156 9.1116C24.0156 8.50752 24.5053 8.01785 25.1094 8.01785C25.7134 8.01785 26.2031 8.50752 26.2031 9.1116C26.2031 9.71565 25.7134 10.2054 25.1094 10.2054ZM28.9375 10.2054C28.3334 10.2054 27.8438 9.71565 27.8438 9.1116C27.8438 8.50752 28.3334 8.01785 28.9375 8.01785C29.5416 8.01785 30.0312 8.50752 30.0312 9.1116C30.0312 9.71565 29.5416 10.2054 28.9375 10.2054Z" fill="#FFB900"/>
</g>
</g>
<defs>
<clipPath id="clip0_449_1922">
<rect width="35" height="35" fill="white" transform="translate(0.5 0.138794)"/>
</clipPath>
<clipPath id="clip1_449_1922">
<rect width="35" height="35" fill="white" transform="translate(0.5 0.138794)"/>
</clipPath>
</defs>
</svg>
