<svg width="160" height="44" viewBox="0 0 160 44" fill="none" xmlns="http://www.w3.org/2000/svg">
<path d="M3.65981 36.026H4.36772C3.96852 36.7126 3.33514 37.0745 2.5474 37.0745C1.45627 37.0745 0.55675 36.0952 0.55675 35.0466C0.55675 33.8597 1.49352 32.9868 2.55272 32.9868C3.29788 32.9868 3.99514 33.3274 4.39433 34.0673H3.7024C3.40433 33.7213 3.05836 33.5137 2.5953 33.5137C1.7703 33.5137 1.13159 34.211 1.13159 34.9934C1.13159 35.8184 1.75433 36.5476 2.56336 36.5476C2.9732 36.5476 3.34046 36.3879 3.65981 36.026ZM7.02489 35.7119V33.0613H7.59973V35.7545C7.59973 36.5795 7.01957 37.0745 6.27973 37.0745C5.53989 37.0745 4.95973 36.5742 4.95973 35.7545V33.0613H5.53457V35.7119C5.53457 36.2016 5.81134 36.5476 6.27973 36.5476C6.74812 36.5476 7.02489 36.1963 7.02489 35.7119ZM10.4823 34.0832H9.90748C9.90748 33.7266 9.67861 33.5137 9.35394 33.5137C9.07716 33.5137 8.827 33.7639 8.827 34.0513C8.827 34.3281 9.01329 34.4877 9.39652 34.6102C10.2481 34.8816 10.5622 35.201 10.5622 35.8823C10.5622 36.5955 10.0512 37.0745 9.35394 37.0745C8.65136 37.0745 8.15103 36.5742 8.14039 35.8344H8.71523C8.72055 36.2602 8.97071 36.5476 9.35394 36.5476C9.73716 36.5476 9.98732 36.2708 9.98732 35.8823C9.98732 35.5948 9.85958 35.4139 9.4391 35.2702C8.46506 34.9402 8.25216 34.6208 8.25216 34.0619C8.25216 33.4605 8.74716 32.9868 9.35394 32.9868C10.0033 32.9868 10.4717 33.3966 10.4823 34.0832ZM12.1218 37H11.547V33.5882H10.7912V33.0613H12.8776V33.5882H12.1218V37ZM15.1481 36.5476C16.0796 36.5476 16.6225 35.7598 16.6225 35.0413C16.6225 34.2269 16.005 33.5137 15.1747 33.5137C14.1102 33.5137 13.6737 34.4292 13.6737 35.0147C13.6737 35.8077 14.2486 36.5476 15.1481 36.5476ZM17.1973 35.004C17.1973 36.1963 16.2765 37.0745 15.1162 37.0745C14.025 37.0745 13.0989 36.1377 13.0989 35.0732C13.0989 33.865 14.025 32.9868 15.1321 32.9868C16.3031 32.9868 17.1973 33.9076 17.1973 35.004ZM22.0286 37H21.4538V33.6734H21.4378L20.1125 37H19.7665L18.4359 33.6734H18.4252V37H17.8504V33.0613H18.7552L19.9368 36.0792L21.1238 33.0613H22.0286V37ZM24.9432 37H22.8195V33.0613H24.9432V33.5882H23.3944V34.7485H24.9432V35.2755H23.3944V36.4731H24.9432V37ZM28.2407 37H27.5222L26.2235 35.1744H26.2128V37H25.638V33.0613H26.8994C27.8469 33.0613 28.2674 33.5616 28.2674 34.3706C28.2674 35.1211 27.6925 35.515 27.139 35.531L28.2407 37ZM26.2128 35.0945H26.6333C27.304 35.0945 27.6925 34.8337 27.6925 34.3227C27.6925 33.8703 27.3306 33.5882 26.8196 33.5882H26.2128V35.0945ZM33.0772 37H32.3587L31.06 35.1744H31.0493V37H30.4745V33.0613H31.7359C32.6833 33.0613 33.1038 33.5616 33.1038 34.3706C33.1038 35.1211 32.529 35.515 31.9754 35.531L33.0772 37ZM31.0493 35.0945H31.4698C32.1404 35.0945 32.529 34.8337 32.529 34.3227C32.529 33.8703 32.1671 33.5882 31.6561 33.5882H31.0493V35.0945ZM35.8117 37H33.688V33.0613H35.8117V33.5882H34.2628V34.7485H35.8117V35.2755H34.2628V36.4731H35.8117V37ZM38.5237 37H36.581V33.0613H37.1558V36.4731H38.5237V37ZM42.2906 37H41.6785L41.2421 35.8397H39.8263L39.3898 37H38.7831L40.2787 33.0613H40.795L42.2906 37ZM41.0452 35.3127L40.5448 33.8065H40.5342L40.0285 35.3127H41.0452ZM43.6383 37H43.0635V33.5882H42.3077V33.0613H44.3941V33.5882H43.6383V37ZM45.4652 37H44.8904V33.0613H45.4652V37ZM48.1629 36.5476C49.0943 36.5476 49.6372 35.7598 49.6372 35.0413C49.6372 34.2269 49.0198 33.5137 48.1895 33.5137C47.125 33.5137 46.6885 34.4292 46.6885 35.0147C46.6885 35.8077 47.2634 36.5476 48.1629 36.5476ZM50.2121 35.004C50.2121 36.1963 49.2913 37.0745 48.1309 37.0745C47.0398 37.0745 46.1137 36.1377 46.1137 35.0732C46.1137 33.865 47.0398 32.9868 48.1469 32.9868C49.3179 32.9868 50.2121 33.9076 50.2121 35.004ZM53.9948 37H53.3987L51.4506 33.9555H51.44V37H50.8652V33.0613H51.4932L53.4093 36.0579H53.42V33.0613H53.9948V37ZM56.8865 34.0832H56.3117C56.3117 33.7266 56.0828 33.5137 55.7581 33.5137C55.4813 33.5137 55.2312 33.7639 55.2312 34.0513C55.2312 34.3281 55.4175 34.4877 55.8007 34.6102C56.6523 34.8816 56.9663 35.201 56.9663 35.8823C56.9663 36.5955 56.4554 37.0745 55.7581 37.0745C55.0555 37.0745 54.5552 36.5742 54.5446 35.8344H55.1194C55.1247 36.2602 55.3749 36.5476 55.7581 36.5476C56.1413 36.5476 56.3915 36.2708 56.3915 35.8823C56.3915 35.5948 56.2637 35.4139 55.8433 35.2702C54.8692 34.9402 54.6563 34.6208 54.6563 34.0619C54.6563 33.4605 55.1513 32.9868 55.7581 32.9868C56.4075 32.9868 56.8758 33.3966 56.8865 34.0832ZM60.3303 37H59.7555V35.2861H58.1321V37H57.5573V33.0613H58.1321V34.7592H59.7555V33.0613H60.3303V37ZM61.751 37H61.1762V33.0613H61.751V37ZM63.1181 37H62.5432V33.0613H63.6876C64.5339 33.0613 65.0715 33.4818 65.0715 34.2535C65.0715 35.0253 64.5445 35.4458 63.6929 35.4458H63.1181V37ZM63.1181 34.9189H63.6876C64.1932 34.9189 64.4966 34.6794 64.4966 34.2535C64.4966 33.8224 64.1826 33.5882 63.6823 33.5882H63.1181V34.9189ZM71.424 37H70.8492V33.6734H70.8332L69.5079 37H69.1619L67.8313 33.6734H67.8207V37H67.2458V33.0613H68.1507L69.3323 36.0792L70.5192 33.0613H71.424V37ZM75.4457 37H74.8337L74.3972 35.8397H72.9814L72.5449 37H71.9382L73.4338 33.0613H73.9501L75.4457 37ZM74.2003 35.3127L73.6999 33.8065H73.6893L73.1837 35.3127H74.2003ZM79.0896 37H78.4934L76.5454 33.9555H76.5347V37H75.9599V33.0613H76.5879L78.5041 36.0579H78.5147V33.0613H79.0896V37ZM83.1202 37H82.5081L82.0717 35.8397H80.6559L80.2194 37H79.6127L81.1083 33.0613H81.6246L83.1202 37ZM81.8748 35.3127L81.3744 33.8065H81.3638L80.8581 35.3127H81.8748ZM86.5681 35.5682H84.7319V35.0413H87.2228C87.1856 36.3506 86.1956 37.0745 85.147 37.0745C84.0825 37.0745 83.1723 36.1484 83.1723 35.0839C83.1723 33.8065 84.1517 32.9868 85.147 32.9868C85.9028 32.9868 86.5522 33.3434 86.9514 34.0513H86.2807C85.9454 33.6681 85.6101 33.5137 85.1736 33.5137C84.4072 33.5137 83.7472 34.2376 83.7472 35.0147C83.7472 35.845 84.4019 36.5476 85.1949 36.5476C85.8177 36.5476 86.318 36.2016 86.5681 35.5682ZM89.9163 37H87.7926V33.0613H89.9163V33.5882H88.3675V34.7485H89.9163V35.2755H88.3675V36.4731H89.9163V37ZM94.8426 37H94.2677V33.6734H94.2518L92.9264 37H92.5805L91.2498 33.6734H91.2392V37H90.6643V33.0613H91.5692L92.7508 36.0792L93.9377 33.0613H94.8426V37ZM97.7572 37H95.6335V33.0613H97.7572V33.5882H96.2083V34.7485H97.7572V35.2755H96.2083V36.4731H97.7572V37ZM101.635 37H101.039L99.0906 33.9555H99.08V37H98.5052V33.0613H99.1332L101.049 36.0579H101.06V33.0613H101.635V37ZM103.457 37H102.882V33.5882H102.126V33.0613H104.212V33.5882H103.457V37Z" fill="#A3A3A3"/>
<path d="M6.78097 21.9355H5.67813C5.67813 20.8029 4.75413 19.9385 3.72581 19.9385C2.59316 19.9385 1.72877 20.788 1.72877 21.861C1.72877 22.7999 2.2951 23.3811 3.85994 23.7835C6.24445 24.3946 7.04923 25.6315 7.04923 27.1219C7.04923 28.9251 5.57381 30.3559 3.72581 30.3559C1.77348 30.3559 0.357677 29.0444 0.327871 27.0771H1.43071C1.50523 28.4929 2.39942 29.3573 3.72581 29.3573C4.97768 29.3573 5.94639 28.3737 5.94639 27.1666C5.94639 25.9743 5.15652 25.3037 3.7109 24.8864C2.13116 24.4393 0.625936 23.9177 0.625936 21.9057C0.625936 20.162 2.02684 18.94 3.72581 18.94C5.43968 18.94 6.78097 20.2366 6.78097 21.9355ZM12.3704 30.1621H11.2675V26.481L7.43741 19.1337H8.65947L11.8041 25.3186L15.0381 19.1337H16.2452L12.3704 26.481V30.1621ZM26.1379 30.1621H25.0351L18.4926 20.4601H18.4628V30.1621H17.3599V19.1337H18.8503L25.0053 28.2843H25.0351V19.1337H26.1379V30.1621ZM34.3531 30.1621H28.3173V19.1337H34.3531V20.1322H29.4201V24.0965H34.1892V25.095H29.4201V29.1636H34.3531V30.1621ZM43.6249 30.1621H42.2389L38.4982 25.1695H39.5712C41.5235 25.1695 42.686 24.171 42.686 22.6658C42.686 21.6226 42.0451 20.1322 39.5116 20.1322H37.4102V30.1621H36.3074V19.1337H39.6308C42.5071 19.1337 43.7888 20.8327 43.7888 22.6956C43.7888 24.484 42.4475 25.8998 40.5101 26.0488L43.6249 30.1621ZM55.3302 26.0935H49.1752V25.095H56.6566C56.4181 28.0608 53.8995 30.3559 50.8294 30.3559C47.8041 30.3559 44.9129 27.9415 44.9129 24.6479C44.9129 21.4884 47.5805 18.94 50.8145 18.94C53.2885 18.94 55.3898 20.5197 56.0307 22.0697H54.749C53.9889 20.7731 52.4092 19.9385 50.8294 19.9385C48.2363 19.9385 46.0157 22.0249 46.0157 24.6628C46.0157 27.3305 48.2512 29.3573 50.8741 29.3573C52.8712 29.3573 54.8235 28.0011 55.3302 26.0935ZM62.2613 30.1621H61.1584V26.481L57.3283 19.1337H58.5503L61.6949 25.3186L64.9289 19.1337H66.1361L62.2613 26.481V30.1621Z" fill="#FFB900"/>
<path d="M79.7833 27.4348H81.7654C80.6476 29.3573 78.8742 30.3708 76.6685 30.3708C73.6133 30.3708 71.0947 27.6286 71.0947 24.6926C71.0947 21.3692 73.7176 18.9251 76.6834 18.9251C78.7698 18.9251 80.7222 19.8789 81.8399 21.9504H79.9025C79.0679 20.9817 78.0992 20.4005 76.8026 20.4005C74.4926 20.4005 72.7042 22.3528 72.7042 24.5436C72.7042 26.8536 74.4479 28.8953 76.7132 28.8953C77.8607 28.8953 78.8891 28.4482 79.7833 27.4348ZM90.4424 30.1621H88.4305L84.7941 25.0503H84.7643V30.1621H83.1548V19.1337H86.6868C89.3396 19.1337 90.517 20.5346 90.517 22.7999C90.517 24.9013 88.9074 26.0041 87.3575 26.0488L90.4424 30.1621ZM84.7643 24.8268H85.9417C87.8195 24.8268 88.9074 24.0965 88.9074 22.6658C88.9074 21.399 87.894 20.6091 86.4633 20.6091H84.7643V24.8268ZM103.852 30.1621H102.242V20.8476H102.197L98.4865 30.1621H97.5177L93.7919 20.8476H93.7621V30.1621H92.1526V19.1337H94.6861L97.9947 27.5839L101.318 19.1337H103.852V30.1621Z" fill="#505050"/>
<g clip-path="url(#clip0_207_1624)">
<path d="M145.979 2.48438C145.979 2.48438 154.407 4.96821 157.157 9.04886C168.157 25.3715 106.381 8.18323 110.952 26.6133C114.921 42.6166 148.108 47.3715 153.253 39.7424C158.399 32.1133 143.141 26.436 143.141 26.436" stroke="#006FB6" stroke-width="1.06452"/>
<path d="M128.067 7.9609C128.773 9.72367 133.716 37.2236 134.069 37.9287C134.422 38.6337 134.069 32.6402 136.187 23.8262C138.305 15.0121 141.482 11.8391 141.129 11.8391C140.776 11.839 135.128 17.8327 134.069 17.8326C133.009 17.8326 127.361 6.19813 128.067 7.9609Z" fill="#2C2C2C" stroke="#2C2C2C" stroke-width="0.709677"/>
<path d="M135.067 3.54839C137.016 3.54839 138.597 5.12686 138.597 7.074C138.597 9.02114 137.016 10.5996 135.067 10.5996C133.117 10.5996 131.536 9.02114 131.536 7.074C131.536 5.12686 133.117 3.54839 135.067 3.54839Z" fill="#2C2C2C"/>
<path d="M140.458 16.04C140.445 17.3732 136.296 36.5519 136.336 37.104C136.377 37.6561 137.751 33.6696 141.486 28.5106C145.22 23.3516 148.133 22.1388 147.904 22.0446C147.674 21.9504 142.402 24.3355 141.714 24.0528C141.026 23.7702 140.471 14.7067 140.458 16.04Z" fill="#FFB900" stroke="#FFB900" stroke-width="0.498392"/>
<path d="M146.105 15.2358C147.371 15.7561 147.975 17.2031 147.454 18.4676C146.933 19.7322 145.484 20.3355 144.218 19.8152C142.951 19.2949 142.347 17.8479 142.868 16.5833C143.389 15.3188 144.838 14.7154 146.105 15.2358Z" fill="#FFB900"/>
<path d="M127.016 15.4033C127.029 16.7366 131.178 35.9155 131.137 36.4677C131.097 37.0198 129.722 33.033 125.988 27.874C122.254 22.715 119.341 21.5022 119.57 21.408C119.8 21.3137 125.072 23.6989 125.76 23.4162C126.448 23.1335 127.003 14.0701 127.016 15.4033Z" fill="#FFB900" stroke="#FFB900" stroke-width="0.498392"/>
<path d="M121.369 14.5991C120.103 15.1194 119.499 16.5663 120.02 17.8309C120.541 19.0955 121.99 19.6988 123.256 19.1785C124.522 18.6581 125.126 17.2112 124.605 15.9466C124.084 14.682 122.635 14.0787 121.369 14.5991Z" fill="#FFB900"/>
<path d="M146.866 5.32321L140.834 2.30708L147.044 0.355469L145.979 2.66192L146.866 5.32321Z" fill="#006FB6" stroke="#006FB6" stroke-width="0.354839"/>
</g>
<defs>
<clipPath id="clip0_207_1624">
<rect width="49.3226" height="44" fill="white" transform="translate(110)"/>
</clipPath>
</defs>
</svg>
