<svg width="40" height="40" viewBox="0 0 40 40" fill="none" xmlns="http://www.w3.org/2000/svg">
<path d="M32.8571 33.2754L32.8571 6.60872C32.8571 4.76777 31.3647 3.27539 29.5238 3.27539L11.1904 3.27539C9.3495 3.27539 7.85711 4.76777 7.85711 6.60872L7.85711 33.2754C7.85711 35.1163 9.3495 36.6087 11.1904 36.6087L29.5238 36.6087C31.3647 36.6087 32.8571 35.1163 32.8571 33.2754Z" stroke="#2C2C2C" stroke-width="3.33333" stroke-linecap="round" stroke-linejoin="round"/>
<path d="M26.1906 21.61L26.1906 11.61C26.1906 10.6896 25.4444 9.94336 24.5239 9.94336L16.1906 9.94336C15.2701 9.94336 14.5239 10.6896 14.5239 11.61L14.5239 21.61C14.5239 22.5305 15.2701 23.2767 16.1906 23.2767L24.5239 23.2767C25.4444 23.2767 26.1906 22.5305 26.1906 21.61Z" stroke="#2C2C2C" stroke-width="3.33333" stroke-linecap="round" stroke-linejoin="round"/>
<path d="M26.1906 29.9414L14.5239 29.9414" stroke="#2C2C2C" stroke-width="3.33333" stroke-linecap="round" stroke-linejoin="round"/>
</svg>
