<svg width="31" height="31" viewBox="0 0 31 31" fill="none" xmlns="http://www.w3.org/2000/svg">
<path d="M6.125 21.3756C4.25 22.9506 3.625 27.6256 3.625 27.6256C3.625 27.6256 8.3 27.0006 9.875 25.1256C10.7625 24.0756 10.75 22.4631 9.7625 21.4881C9.27663 21.0244 8.63662 20.7564 7.96528 20.7357C7.29395 20.7149 6.6386 20.9428 6.125 21.3756Z" stroke="#2C2C2C" stroke-width="2.5" stroke-linecap="round" stroke-linejoin="round"/>
<path d="M15.5 19.5003L11.75 15.7503C12.4152 14.0246 13.2528 12.3704 14.25 10.8128C15.7065 8.48404 17.7345 6.56662 20.1413 5.24292C22.548 3.91923 25.2533 3.23327 28 3.25031C28 6.65031 27.025 12.6253 20.5 17.0003C18.9211 17.9987 17.2461 18.8362 15.5 19.5003Z" stroke="#2C2C2C" stroke-width="2.5" stroke-linecap="round" stroke-linejoin="round"/>
<path d="M11.75 15.7494H5.5C5.5 15.7494 6.1875 11.9619 8 10.7494C10.025 9.39941 14.25 10.7494 14.25 10.7494" stroke="#2C2C2C" stroke-width="2.5" stroke-linecap="round" stroke-linejoin="round"/>
<path d="M15.5 19.5V25.75C15.5 25.75 19.2875 25.0625 20.5 23.25C21.85 21.225 20.5 17 20.5 17" stroke="#2C2C2C" stroke-width="2.5" stroke-linecap="round" stroke-linejoin="round"/>
</svg>
