<svg width="30" height="30" viewBox="0 0 30 30" fill="none" xmlns="http://www.w3.org/2000/svg">
<rect width="30" height="30" rx="15" fill="#2C2C2C"/>
<path d="M15.8789 20.9336V15.8066H17.6074L17.8564 13.7998H15.8789V12.5254C15.8789 12.2422 15.9399 12.0103 16.062 11.8296C16.1841 11.6489 16.4502 11.5586 16.8604 11.5586H17.915V9.77148C17.6904 9.74219 17.4512 9.72021 17.1973 9.70557C16.9434 9.69092 16.6895 9.68359 16.4355 9.68359C16.4258 9.68359 16.416 9.68359 16.4062 9.68359C16.3965 9.68359 16.3867 9.68359 16.377 9.68359C15.6152 9.68359 14.9951 9.91064 14.5166 10.3647C14.0381 10.8188 13.7988 11.4756 13.7988 12.335V13.7998H12.085V15.8066H13.7988V20.9336H15.8789Z" fill="white"/>
</svg>
