<svg width="40" height="41" viewBox="0 0 40 41" fill="none" xmlns="http://www.w3.org/2000/svg">
<path d="M20.1406 30.3552C22.0313 30.3552 23.7071 29.1325 24.2891 27.3318C24.3281 27.2107 24.2735 27.0818 24.1563 27.0271C24.0391 26.9763 23.9024 27.0193 23.8399 27.1286C23.8321 27.1403 23.168 28.2146 20.5703 28.5661C20.1992 28.6169 19.8203 28.6443 19.4453 28.6443C17.6289 28.6443 16.8164 27.9568 16.8086 27.9528C16.7149 27.8708 16.5781 27.8708 16.4805 27.9489C16.3867 28.0271 16.3633 28.1677 16.4297 28.2732C17.2266 29.5544 18.6446 30.3513 20.1406 30.3552Z" fill="#2C2C2C"/>
<path d="M31.5743 16.6523C29.7891 11.8203 25.168 8.36719 19.7305 8.36719C14.3165 8.36719 9.70708 11.7891 7.9102 16.5898C7.81645 16.4844 7.7188 16.3828 7.61333 16.293C8.63286 10.4414 13.668 5.99219 19.7383 5.99219C25.7813 5.99219 30.8008 10.3984 31.8555 16.207C31.7461 16.3477 31.6524 16.4961 31.5743 16.6523ZM34.0977 15.0703C34.0743 15.0703 34.0547 15.0742 34.0313 15.0742C32.5118 8.49219 26.6993 3.58203 19.7344 3.58203C12.5782 3.58203 6.63286 8.76563 5.31645 15.6211C4.00786 15.8633 3.05474 17.0078 3.06255 18.3398V23.7891C3.06255 25.3164 4.28911 26.5547 5.80083 26.5547C6.65239 26.5547 7.4063 26.1523 7.9063 25.5352C9.11723 28.7266 11.5625 31.3047 14.6954 32.6719C14.7344 32.5937 14.7813 32.5195 14.8321 32.4492C14.8829 32.3867 14.9375 32.332 14.9844 32.332C15.0313 32.332 15.0782 32.3477 15.1172 32.375C14.3946 31.8359 11.7891 29.0781 11.2227 25.2227C10.9766 23.5273 12.2461 21.8594 13.7266 21.5859C16.1016 21.1445 18.4649 20.6406 20.8399 20.207C22.3516 19.9336 23.3829 19.1016 24.0118 17.7227C24.1602 17.3984 24.375 16.7461 24.4727 15.8086C24.4961 15.668 24.6172 15.5625 24.7618 15.5625C24.8555 15.5625 24.9415 15.6094 24.9961 15.6836L25.0625 15.6445C26 17.0039 27.8555 20.0156 28.1211 23.1875C28.4258 26.8164 28.2579 29.3008 25.4805 31.8437L25.4688 31.8555C25.4297 31.8984 25.4063 31.9531 25.4063 32.0117C25.4063 32.0859 25.4454 32.1562 25.5079 32.1953C25.5313 32.2031 25.5547 32.2187 25.5782 32.2266C25.5977 32.2305 25.6133 32.2344 25.6329 32.2383C25.6524 32.2383 25.668 32.2344 25.6836 32.2266C25.7227 32.207 25.7618 32.1836 25.8008 32.1602C28.6368 30.5938 30.7696 28.0039 31.7579 24.918C32.1705 25.5259 32.8039 25.9491 33.5235 26.0977C32.3516 31.4453 27.5782 34.7969 21.668 35.3008C21.293 34.3867 20.4024 33.793 19.418 33.7969C18.0821 33.7969 16.9961 34.8555 16.9961 36.1602C16.9961 37.4648 18.0821 38.5234 19.418 38.5234C20.4571 38.5273 21.3829 37.8633 21.711 36.8789C28.5508 36.3242 34.0352 32.2578 35.1797 25.9414C36.2227 25.5117 36.9024 24.4961 36.9024 23.3672V17.8633C36.9102 16.3203 35.6524 15.0703 34.0977 15.0703Z" fill="#2C2C2C"/>
</svg>
