<svg width="40" height="41" viewBox="0 0 40 41" fill="none" xmlns="http://www.w3.org/2000/svg">
<path d="M25.3799 28.1774L23.8416 27.5391" stroke="#2C2C2C" stroke-width="3.33333" stroke-linecap="round" stroke-linejoin="round"/>
<path d="M25.3799 32.0039L23.8416 32.6422" stroke="#2C2C2C" stroke-width="3.33333" stroke-linecap="round" stroke-linejoin="round"/>
<path d="M26.6665 3.42188V10.0885" stroke="#2C2C2C" stroke-width="3.33333" stroke-linecap="round" stroke-linejoin="round"/>
<path d="M27.45 23.9297L28.0866 25.468" stroke="#2C2C2C" stroke-width="3.33333" stroke-linecap="round" stroke-linejoin="round"/>
<path d="M28.0867 34.7109L27.4484 36.2509" stroke="#2C2C2C" stroke-width="3.33333" stroke-linecap="round" stroke-linejoin="round"/>
<path d="M31.9131 25.468L32.5514 23.9297" stroke="#2C2C2C" stroke-width="3.33333" stroke-linecap="round" stroke-linejoin="round"/>
<path d="M32.5499 36.2509L31.9132 34.7109" stroke="#2C2C2C" stroke-width="3.33333" stroke-linecap="round" stroke-linejoin="round"/>
<path d="M34.6201 28.1774L36.1601 27.5391" stroke="#2C2C2C" stroke-width="3.33333" stroke-linecap="round" stroke-linejoin="round"/>
<path d="M34.6199 32.0039L36.1599 32.6422" stroke="#2C2C2C" stroke-width="3.33333" stroke-linecap="round" stroke-linejoin="round"/>
<path d="M35 18.4245V10.0911C35 9.20709 34.6488 8.35924 34.0237 7.73412C33.3986 7.109 32.5507 6.75781 31.6667 6.75781H8.33333C7.44928 6.75781 6.60143 7.109 5.97631 7.73412C5.35119 8.35924 5 9.20709 5 10.0911V33.4245C5 34.3085 5.35119 35.1564 5.97631 35.7815C6.60143 36.4066 7.44928 36.7578 8.33333 36.7578H18.3333" stroke="#2C2C2C" stroke-width="3.33333" stroke-linecap="round" stroke-linejoin="round"/>
<path d="M5 16.7578H35" stroke="#2C2C2C" stroke-width="3.33333" stroke-linecap="round" stroke-linejoin="round"/>
<path d="M13.3335 3.42188V10.0885" stroke="#2C2C2C" stroke-width="3.33333" stroke-linecap="round" stroke-linejoin="round"/>
<path d="M30 35.0898C32.7614 35.0898 35 32.8513 35 30.0898C35 27.3284 32.7614 25.0898 30 25.0898C27.2386 25.0898 25 27.3284 25 30.0898C25 32.8513 27.2386 35.0898 30 35.0898Z" stroke="#2C2C2C" stroke-width="3.33333" stroke-linecap="round" stroke-linejoin="round"/>
</svg>
