<svg width="40" height="41" viewBox="0 0 40 41" fill="none" xmlns="http://www.w3.org/2000/svg">
<path d="M2.5332 11.9368L9.8832 4.58685C10.1933 4.2749 10.5621 4.02741 10.9683 3.85864C11.3744 3.68988 11.81 3.60317 12.2499 3.60352H19.1999H22.6749H24.4124" stroke="#2C2C2C" stroke-width="3.33333" stroke-linecap="round" stroke-linejoin="round"/>
<path d="M5.8667 20.2695V33.6029C5.8667 34.4869 6.21789 35.3348 6.84301 35.9599C7.46813 36.585 8.31598 36.9362 9.20003 36.9362H29.2C30.0841 36.9362 30.9319 36.585 31.5571 35.9599C32.1822 35.3348 32.5334 34.4869 32.5334 33.6029V20.2695" stroke="#2C2C2C" stroke-width="3.33333" stroke-linecap="round" stroke-linejoin="round"/>
<path d="M24.2002 36.9355V30.2689C24.2002 29.3848 23.849 28.537 23.2239 27.9119C22.5988 27.2867 21.7509 26.9355 20.8669 26.9355H17.5335C16.6495 26.9355 15.8016 27.2867 15.1765 27.9119C14.5514 28.537 14.2002 29.3848 14.2002 30.2689V36.9355" stroke="#2C2C2C" stroke-width="3.33333" stroke-linecap="round" stroke-linejoin="round"/>
<path d="M2.5332 11.9355H19.1999H23.3665" stroke="#2C2C2C" stroke-width="3.33333" stroke-linecap="round" stroke-linejoin="round"/>
<path d="M35.8665 16.9355C35.8665 17.8196 35.5153 18.6674 34.8902 19.2926C34.2651 19.9177 33.4173 20.2689 32.5332 20.2689C31.5594 20.2153 30.6294 19.8468 29.8832 19.2189C29.6843 19.0752 29.4452 18.9978 29.1999 18.9978C28.9545 18.9978 28.7154 19.0752 28.5165 19.2189C27.7703 19.8468 26.8403 20.2153 25.8665 20.2689C24.8928 20.2153 23.9628 19.8468 23.2165 19.2189C23.0177 19.0752 22.7786 18.9978 22.5332 18.9978C22.2878 18.9978 22.0487 19.0752 21.8499 19.2189C21.1037 19.8468 20.1736 20.2153 19.1999 20.2689C18.2261 20.2153 17.2961 19.8468 16.5499 19.2189C16.351 19.0752 16.1119 18.9978 15.8665 18.9978C15.6212 18.9978 15.3821 19.0752 15.1832 19.2189C14.437 19.8468 13.507 20.2153 12.5332 20.2689C11.5594 20.2153 10.6294 19.8468 9.8832 19.2189C9.68434 19.0752 9.44523 18.9978 9.19987 18.9978C8.95451 18.9978 8.7154 19.0752 8.51654 19.2189C7.77032 19.8468 6.84031 20.2153 5.86654 20.2689C4.98248 20.2689 4.13463 19.9177 3.50951 19.2926C2.88439 18.6674 2.5332 17.8196 2.5332 16.9355V11.9355" stroke="#2C2C2C" stroke-width="3.33333" stroke-linecap="round" stroke-linejoin="round"/>
<path d="M27.6 9.96698L28.8888 9.43359" stroke="#2C2C2C" stroke-width="2.79259" stroke-linecap="round" stroke-linejoin="round"/>
<path d="M28.8888 6.22619L27.6 5.69141" stroke="#2C2C2C" stroke-width="2.79259" stroke-linecap="round" stroke-linejoin="round"/>
<path d="M31.1564 3.9587L30.6216 2.66992" stroke="#2C2C2C" stroke-width="2.79259" stroke-linecap="round" stroke-linejoin="round"/>
<path d="M31.1562 11.7012L30.6215 12.9913" stroke="#2C2C2C" stroke-width="2.79259" stroke-linecap="round" stroke-linejoin="round"/>
<path d="M34.3623 3.9587L34.8971 2.66992" stroke="#2C2C2C" stroke-width="2.79259" stroke-linecap="round" stroke-linejoin="round"/>
<path d="M34.8956 12.9913L34.3622 11.7012" stroke="#2C2C2C" stroke-width="2.79259" stroke-linecap="round" stroke-linejoin="round"/>
<path d="M36.6298 6.22619L37.92 5.69141" stroke="#2C2C2C" stroke-width="2.79259" stroke-linecap="round" stroke-linejoin="round"/>
<path d="M36.6298 9.43359L37.9199 9.96837" stroke="#2C2C2C" stroke-width="2.79259" stroke-linecap="round" stroke-linejoin="round"/>
<path d="M32.7594 12.0184C35.0728 12.0184 36.9483 10.143 36.9483 7.82951C36.9483 5.51605 35.0728 3.64062 32.7594 3.64062C30.4459 3.64062 28.5705 5.51605 28.5705 7.82951C28.5705 10.143 30.4459 12.0184 32.7594 12.0184Z" stroke="#2C2C2C" stroke-width="2.79259" stroke-linecap="round" stroke-linejoin="round"/>
</svg>
