<svg width="40" height="41" viewBox="0 0 40 41" fill="none" xmlns="http://www.w3.org/2000/svg">
<path d="M10 30.0898H23.3333" stroke="#2C2C2C" stroke-width="3.33333" stroke-linecap="round" stroke-linejoin="round"/>
<path d="M5 36.7578H35" stroke="#2C2C2C" stroke-width="3.33333" stroke-linecap="round" stroke-linejoin="round"/>
<path d="M23.3332 36.7552C26.4274 36.7552 29.3948 35.526 31.5827 33.3381C33.7707 31.1502 34.9998 28.1827 34.9998 25.0885C34.9998 21.9943 33.7707 19.0269 31.5827 16.839C29.3948 14.651 26.4274 13.4219 23.3332 13.4219H21.6665" stroke="#2C2C2C" stroke-width="3.33333" stroke-linecap="round" stroke-linejoin="round"/>
<path d="M15 23.4219H18.3333" stroke="#2C2C2C" stroke-width="3.33333" stroke-linecap="round" stroke-linejoin="round"/>
<path d="M15 20.0898C14.116 20.0898 13.2681 19.7387 12.643 19.1135C12.0179 18.4884 11.6667 17.6406 11.6667 16.7565V10.0898H21.6667V16.7565C21.6667 17.6406 21.3155 18.4884 20.6904 19.1135C20.0653 19.7387 19.2174 20.0898 18.3334 20.0898H15Z" stroke="#2C2C2C" stroke-width="3.33333" stroke-linecap="round" stroke-linejoin="round"/>
<path d="M20.0002 10.0885V5.08854C20.0002 4.64651 19.8246 4.22259 19.512 3.91003C19.1994 3.59747 18.7755 3.42188 18.3335 3.42188H15.0002C14.5581 3.42188 14.1342 3.59747 13.8217 3.91003C13.5091 4.22259 13.3335 4.64651 13.3335 5.08854V10.0885" stroke="#2C2C2C" stroke-width="3.33333" stroke-linecap="round" stroke-linejoin="round"/>
</svg>
