<svg width="31" height="31" viewBox="0 0 31 31" fill="none" xmlns="http://www.w3.org/2000/svg">
<path d="M24.1301 3.25V7H27.8801" stroke="#2C2C2C" stroke-width="2.5" stroke-linecap="round" stroke-linejoin="round"/>
<path d="M17.1299 14L27.8799 3.25" stroke="#2C2C2C" stroke-width="2.5" stroke-linecap="round" stroke-linejoin="round"/>
<path d="M15.3801 18.25C16.7608 18.25 17.8801 17.1307 17.8801 15.75C17.8801 14.3693 16.7608 13.25 15.3801 13.25C13.9994 13.25 12.8801 14.3693 12.8801 15.75C12.8801 17.1307 13.9994 18.25 15.3801 18.25Z" stroke="#2C2C2C" stroke-width="2.5" stroke-linecap="round" stroke-linejoin="round"/>
<path d="M15.7551 8.25H15.3801C13.8967 8.25 12.4467 8.68987 11.2133 9.51398C9.97992 10.3381 9.01863 11.5094 8.45097 12.8799C7.88332 14.2503 7.73479 15.7583 8.02418 17.2132C8.31357 18.668 9.02787 20.0044 10.0768 21.0533C11.1257 22.1022 12.462 22.8165 13.9169 23.1059C15.3717 23.3953 16.8797 23.2468 18.2502 22.6791C19.6206 22.1114 20.792 21.1501 21.6161 19.9168C22.4402 18.6834 22.8801 17.2334 22.8801 15.75V15.375" stroke="#2C2C2C" stroke-width="2.5" stroke-linecap="round" stroke-linejoin="round"/>
<path d="M19.1302 3.87451C16.4802 3.04263 13.6278 3.12356 11.0293 4.10437C8.43077 5.08517 6.23628 6.90917 4.79689 9.28456C3.35751 11.66 2.7564 14.4495 3.08973 17.2069C3.42307 19.9643 4.67159 22.5302 6.63556 24.4942C8.59952 26.4581 11.1654 27.7066 13.9228 28.04C16.6802 28.3733 19.4698 27.7722 21.8451 26.3328C24.2205 24.8934 26.0445 22.6989 27.0253 20.1004C28.0061 17.5019 28.0871 14.6495 27.2552 11.9995" stroke="#2C2C2C" stroke-width="2.5" stroke-linecap="round" stroke-linejoin="round"/>
</svg>
