<svg width="40" height="41" viewBox="0 0 40 41" fill="none" xmlns="http://www.w3.org/2000/svg">
<path d="M24.9334 31.7572V11.7572C24.9334 10.8731 24.5822 10.0253 23.9571 9.40014C23.332 8.77502 22.4842 8.42383 21.6001 8.42383H16.6001" stroke="#2C2C2C" stroke-width="3.33333" stroke-linecap="round" stroke-linejoin="round"/>
<path d="M25 31.7559H15" stroke="#2C2C2C" stroke-width="3.33333" stroke-linecap="round" stroke-linejoin="round"/>
<path d="M33.2666 31.7565H36.6C37.042 31.7565 37.4659 31.5809 37.7785 31.2684C38.091 30.9558 38.2666 30.5319 38.2666 30.0898V24.0065C38.2644 23.6306 38.1352 23.2664 37.9 22.9732L32.1 15.7232C31.9447 15.5268 31.7473 15.3678 31.5222 15.2582C31.2972 15.1485 31.0503 15.091 30.8 15.0898H24.9333" stroke="#2C2C2C" stroke-width="3.33333" stroke-linecap="round" stroke-linejoin="round"/>
<path d="M3.33325 21.7559V30.0892C3.33325 30.5312 3.50885 30.9551 3.82141 31.2677C4.13397 31.5803 4.55789 31.7559 4.99992 31.7559H8.33325" stroke="#2C2C2C" stroke-width="3.33333" stroke-linecap="round" stroke-linejoin="round"/>
<path d="M2 13.7873L3.28878 13.2539" stroke="#2C2C2C" stroke-width="2.79259" stroke-linecap="round" stroke-linejoin="round"/>
<path d="M3.28884 10.0465L2.00006 9.51172" stroke="#2C2C2C" stroke-width="2.79259" stroke-linecap="round" stroke-linejoin="round"/>
<path d="M5.55651 7.77901L5.02173 6.49023" stroke="#2C2C2C" stroke-width="2.79259" stroke-linecap="round" stroke-linejoin="round"/>
<path d="M5.55651 15.5215L5.02173 16.8117" stroke="#2C2C2C" stroke-width="2.79259" stroke-linecap="round" stroke-linejoin="round"/>
<path d="M8.76233 7.77901L9.29711 6.49023" stroke="#2C2C2C" stroke-width="2.79259" stroke-linecap="round" stroke-linejoin="round"/>
<path d="M9.29559 16.8117L8.76221 15.5215" stroke="#2C2C2C" stroke-width="2.79259" stroke-linecap="round" stroke-linejoin="round"/>
<path d="M11.0298 10.0465L12.32 9.51172" stroke="#2C2C2C" stroke-width="2.79259" stroke-linecap="round" stroke-linejoin="round"/>
<path d="M11.0298 13.2539L12.32 13.7887" stroke="#2C2C2C" stroke-width="2.79259" stroke-linecap="round" stroke-linejoin="round"/>
<path d="M7.1594 15.8387C9.47286 15.8387 11.3483 13.9633 11.3483 11.6498C11.3483 9.33636 9.47286 7.46094 7.1594 7.46094C4.84595 7.46094 2.97052 9.33636 2.97052 11.6498C2.97052 13.9633 4.84595 15.8387 7.1594 15.8387Z" stroke="#2C2C2C" stroke-width="2.79259" stroke-linecap="round" stroke-linejoin="round"/>
<path d="M29.9334 35.0905C31.7744 35.0905 33.2668 33.5981 33.2668 31.7572C33.2668 29.9162 31.7744 28.4238 29.9334 28.4238C28.0925 28.4238 26.6001 29.9162 26.6001 31.7572C26.6001 33.5981 28.0925 35.0905 29.9334 35.0905Z" stroke="#2C2C2C" stroke-width="3.33333" stroke-linecap="round" stroke-linejoin="round"/>
<path d="M11.6666 35.0905C13.5075 35.0905 14.9999 33.5981 14.9999 31.7572C14.9999 29.9162 13.5075 28.4238 11.6666 28.4238C9.82564 28.4238 8.33325 29.9162 8.33325 31.7572C8.33325 33.5981 9.82564 35.0905 11.6666 35.0905Z" stroke="#2C2C2C" stroke-width="3.33333" stroke-linecap="round" stroke-linejoin="round"/>
</svg>
