<svg width="31" height="31" viewBox="0 0 31 31" fill="none" xmlns="http://www.w3.org/2000/svg">
<path d="M19.8462 16.8623L21.7399 27.5198C21.7611 27.6453 21.7435 27.7743 21.6895 27.8895C21.6354 28.0047 21.5474 28.1007 21.4373 28.1646C21.3273 28.2284 21.2003 28.2572 21.0734 28.2469C20.9466 28.2367 20.8259 28.188 20.7274 28.1073L16.2524 24.7486C16.0364 24.5872 15.774 24.5 15.5043 24.5C15.2346 24.5 14.9722 24.5872 14.7562 24.7486L10.2737 28.1061C10.1753 28.1866 10.0548 28.2352 9.92805 28.2455C9.80134 28.2557 9.67452 28.2271 9.56451 28.1634C9.4545 28.0997 9.36653 28.004 9.31233 27.889C9.25814 27.774 9.24029 27.6452 9.26118 27.5198L11.1537 16.8623" stroke="#2C2C2C" stroke-width="2.5" stroke-linecap="round" stroke-linejoin="round"/>
<path d="M15.5 18.25C19.6421 18.25 23 14.8921 23 10.75C23 6.60786 19.6421 3.25 15.5 3.25C11.3579 3.25 8 6.60786 8 10.75C8 14.8921 11.3579 18.25 15.5 18.25Z" stroke="#2C2C2C" stroke-width="2.5" stroke-linecap="round" stroke-linejoin="round"/>
</svg>
